<svg width="34" height="31.000000000000004" xmlns="http://www.w3.org/2000/svg">
 <title/>

 <g>
  <title>background</title>
  <rect fill="none" id="canvas_background" height="33" width="36" y="-1" x="-1"/>
 </g>
 <g>
  <title>Layer 1</title>
  <path fill="#ffffff" id="svg_1" d="m31.989389,16.727928a11.73,11.73 0 0 0 -11.82,-10.41l-15.18,0l3.25,-4.59a1,1 0 0 0 -0.25,-1.41a1,1 0 0 0 -1.39,0.24l-4.46,6.25a0.87,0.87 0 0 0 0,1l4.47,6.26a1,1 0 0 0 1.63,-1.14l-3.25,-4.61l15.18,0a9.73,9.73 0 0 1 9.82,8.85a9.51,9.51 0 0 1 -9.48,10.15l-17.52,0a1,1 0 1 0 0,2l17.5,0a11.51,11.51 0 0 0 11.5,-12.59z"/>
  <path fill="#ffffff" id="svg_2" d="m6.589389,14.497928l-4.47,-6.26a0.9,0.9 0 0 1 0,-1l4.47,-6.28a1,1 0 0 1 1.4,-0.23l0,0a1,1 0 0 1 0.23,1.4l-4,5.6l4,5.6a1,1 0 0 1 -0.23,1.4l0,0a1,1 0 0 1 -1.4,-0.23z"/>
  <path fill="#ffffff" id="svg_3" d="m20.149389,6.727928l-17.16,0a1,1 0 0 0 -1,1l0,0a1,1 0 0 0 1,1l17.16,0a9.73,9.73 0 0 1 9.84,8.85a9.51,9.51 0 0 1 -9.5,10.15l-17.5,0a1,1 0 0 0 -1,1l0,0a1,1 0 0 0 1,1l17.5,0a11.51,11.51 0 0 0 11.5,-12.61a11.72,11.72 0 0 0 -11.84,-10.39z"/>
 </g>
</svg>