<svg width="344" height="99" viewBox="0 0 344 99" fill="none" xmlns="http://www.w3.org/2000/svg">
<rect x="40" y="99" width="40" height="40" transform="rotate(-180 40 99)" fill="#FF6B00"/>
<rect x="72" y="99" width="32" height="32" transform="rotate(-180 72 99)" fill="#FF6B00"/>
<rect x="32" y="61" width="32" height="32" transform="rotate(-180 32 61)" fill="#FF6B00"/>
<rect x="64" y="55" width="20" height="20" transform="rotate(-180 64 55)" fill="#FF6B00"/>
<rect x="106" y="74" width="26" height="26" transform="rotate(-180 106 74)" fill="#FF6B00"/>
<rect x="244" y="79" width="18" height="18" transform="rotate(-180 244 79)" fill="#FF6B00"/>
<rect x="344" y="70" width="18" height="18" transform="rotate(-180 344 70)" fill="#FF6B00"/>
<rect x="186" y="90" width="32" height="32" transform="rotate(-180 186 90)" fill="#FF6B00"/>
<rect x="32" y="20" width="13" height="13" transform="rotate(-180 32 20)" fill="#FF6B00"/>
<rect x="77" y="13" width="13" height="13" transform="rotate(-180 77 13)" fill="#FF6B00"/>
<rect x="115" y="25" width="9" height="9" transform="rotate(-180 115 25)" fill="#FF6B00"/>
<rect x="218" y="40" width="9" height="9" transform="rotate(-180 218 40)" fill="#FF6B00"/>
</svg>
