<svg width="461" height="535" viewBox="0 0 461 535" fill="none" xmlns="http://www.w3.org/2000/svg">
<rect x="116" y="10" width="335" height="515" stroke="white" stroke-opacity="0.06" stroke-width="20"/>
<path d="M-166 85C-166 87.7614 -168.239 90 -171 90C-173.761 90 -176 87.7614 -176 85C-176 82.2386 -173.761 80 -171 80C-168.239 80 -166 82.2386 -166 85Z" fill="white" fill-opacity="0.1"/>
<path d="M-166 108C-166 110.761 -168.239 113 -171 113C-173.761 113 -176 110.761 -176 108C-176 105.239 -173.761 103 -171 103C-168.239 103 -166 105.239 -166 108Z" fill="white" fill-opacity="0.1"/>
<path d="M-166 131C-166 133.761 -168.239 136 -171 136C-173.761 136 -176 133.761 -176 131C-176 128.239 -173.761 126 -171 126C-168.239 126 -166 128.239 -166 131Z" fill="white" fill-opacity="0.1"/>
<path d="M-166 154C-166 156.761 -168.239 159 -171 159C-173.761 159 -176 156.761 -176 154C-176 151.239 -173.761 149 -171 149C-168.239 149 -166 151.239 -166 154Z" fill="white" fill-opacity="0.1"/>
<path d="M-166 177C-166 179.761 -168.239 182 -171 182C-173.761 182 -176 179.761 -176 177C-176 174.239 -173.761 172 -171 172C-168.239 172 -166 174.239 -166 177Z" fill="white" fill-opacity="0.1"/>
<path d="M-166 200C-166 202.761 -168.239 205 -171 205C-173.761 205 -176 202.761 -176 200C-176 197.239 -173.761 195 -171 195C-168.239 195 -166 197.239 -166 200Z" fill="white" fill-opacity="0.1"/>
<path d="M-166 223C-166 225.761 -168.239 228 -171 228C-173.761 228 -176 225.761 -176 223C-176 220.239 -173.761 218 -171 218C-168.239 218 -166 220.239 -166 223Z" fill="white" fill-opacity="0.1"/>
<path d="M-166 246C-166 248.761 -168.239 251 -171 251C-173.761 251 -176 248.761 -176 246C-176 243.239 -173.761 241 -171 241C-168.239 241 -166 243.239 -166 246Z" fill="white" fill-opacity="0.1"/>
<path d="M-166 269C-166 271.761 -168.239 274 -171 274C-173.761 274 -176 271.761 -176 269C-176 266.239 -173.761 264 -171 264C-168.239 264 -166 266.239 -166 269Z" fill="white" fill-opacity="0.1"/>
<path d="M-166 292C-166 294.761 -168.239 297 -171 297C-173.761 297 -176 294.761 -176 292C-176 289.239 -173.761 287 -171 287C-168.239 287 -166 289.239 -166 292Z" fill="white" fill-opacity="0.1"/>
<path d="M-166 315C-166 317.761 -168.239 320 -171 320C-173.761 320 -176 317.761 -176 315C-176 312.239 -173.761 310 -171 310C-168.239 310 -166 312.239 -166 315Z" fill="white" fill-opacity="0.1"/>
<path d="M-166 338C-166 340.761 -168.239 343 -171 343C-173.761 343 -176 340.761 -176 338C-176 335.239 -173.761 333 -171 333C-168.239 333 -166 335.239 -166 338Z" fill="white" fill-opacity="0.1"/>
<path d="M-166 361C-166 363.761 -168.239 366 -171 366C-173.761 366 -176 363.761 -176 361C-176 358.239 -173.761 356 -171 356C-168.239 356 -166 358.239 -166 361Z" fill="white" fill-opacity="0.1"/>
<path d="M-166 384C-166 386.761 -168.239 389 -171 389C-173.761 389 -176 386.761 -176 384C-176 381.239 -173.761 379 -171 379C-168.239 379 -166 381.239 -166 384Z" fill="white" fill-opacity="0.1"/>
<path d="M-166 407C-166 409.761 -168.239 412 -171 412C-173.761 412 -176 409.761 -176 407C-176 404.239 -173.761 402 -171 402C-168.239 402 -166 404.239 -166 407Z" fill="white" fill-opacity="0.1"/>
<path d="M-166 430C-166 432.761 -168.239 435 -171 435C-173.761 435 -176 432.761 -176 430C-176 427.239 -173.761 425 -171 425C-168.239 425 -166 427.239 -166 430Z" fill="white" fill-opacity="0.1"/>
<path d="M-166 453C-166 455.761 -168.239 458 -171 458C-173.761 458 -176 455.761 -176 453C-176 450.239 -173.761 448 -171 448C-168.239 448 -166 450.239 -166 453Z" fill="white" fill-opacity="0.1"/>
<path d="M-143 85C-143 87.7614 -145.239 90 -148 90C-150.761 90 -153 87.7614 -153 85C-153 82.2386 -150.761 80 -148 80C-145.239 80 -143 82.2386 -143 85Z" fill="white" fill-opacity="0.1"/>
<path d="M-143 108C-143 110.761 -145.239 113 -148 113C-150.761 113 -153 110.761 -153 108C-153 105.239 -150.761 103 -148 103C-145.239 103 -143 105.239 -143 108Z" fill="white" fill-opacity="0.1"/>
<path d="M-143 131C-143 133.761 -145.239 136 -148 136C-150.761 136 -153 133.761 -153 131C-153 128.239 -150.761 126 -148 126C-145.239 126 -143 128.239 -143 131Z" fill="white" fill-opacity="0.1"/>
<path d="M-143 154C-143 156.761 -145.239 159 -148 159C-150.761 159 -153 156.761 -153 154C-153 151.239 -150.761 149 -148 149C-145.239 149 -143 151.239 -143 154Z" fill="white" fill-opacity="0.1"/>
<path d="M-143 177C-143 179.761 -145.239 182 -148 182C-150.761 182 -153 179.761 -153 177C-153 174.239 -150.761 172 -148 172C-145.239 172 -143 174.239 -143 177Z" fill="white" fill-opacity="0.1"/>
<path d="M-143 200C-143 202.761 -145.239 205 -148 205C-150.761 205 -153 202.761 -153 200C-153 197.239 -150.761 195 -148 195C-145.239 195 -143 197.239 -143 200Z" fill="white" fill-opacity="0.1"/>
<path d="M-143 223C-143 225.761 -145.239 228 -148 228C-150.761 228 -153 225.761 -153 223C-153 220.239 -150.761 218 -148 218C-145.239 218 -143 220.239 -143 223Z" fill="white" fill-opacity="0.1"/>
<path d="M-143 246C-143 248.761 -145.239 251 -148 251C-150.761 251 -153 248.761 -153 246C-153 243.239 -150.761 241 -148 241C-145.239 241 -143 243.239 -143 246Z" fill="white" fill-opacity="0.1"/>
<path d="M-143 269C-143 271.761 -145.239 274 -148 274C-150.761 274 -153 271.761 -153 269C-153 266.239 -150.761 264 -148 264C-145.239 264 -143 266.239 -143 269Z" fill="white" fill-opacity="0.1"/>
<path d="M-143 292C-143 294.761 -145.239 297 -148 297C-150.761 297 -153 294.761 -153 292C-153 289.239 -150.761 287 -148 287C-145.239 287 -143 289.239 -143 292Z" fill="white" fill-opacity="0.1"/>
<path d="M-143 315C-143 317.761 -145.239 320 -148 320C-150.761 320 -153 317.761 -153 315C-153 312.239 -150.761 310 -148 310C-145.239 310 -143 312.239 -143 315Z" fill="white" fill-opacity="0.1"/>
<path d="M-143 338C-143 340.761 -145.239 343 -148 343C-150.761 343 -153 340.761 -153 338C-153 335.239 -150.761 333 -148 333C-145.239 333 -143 335.239 -143 338Z" fill="white" fill-opacity="0.1"/>
<path d="M-143 361C-143 363.761 -145.239 366 -148 366C-150.761 366 -153 363.761 -153 361C-153 358.239 -150.761 356 -148 356C-145.239 356 -143 358.239 -143 361Z" fill="white" fill-opacity="0.1"/>
<path d="M-143 384C-143 386.761 -145.239 389 -148 389C-150.761 389 -153 386.761 -153 384C-153 381.239 -150.761 379 -148 379C-145.239 379 -143 381.239 -143 384Z" fill="white" fill-opacity="0.1"/>
<path d="M-143 407C-143 409.761 -145.239 412 -148 412C-150.761 412 -153 409.761 -153 407C-153 404.239 -150.761 402 -148 402C-145.239 402 -143 404.239 -143 407Z" fill="white" fill-opacity="0.1"/>
<path d="M-143 430C-143 432.761 -145.239 435 -148 435C-150.761 435 -153 432.761 -153 430C-153 427.239 -150.761 425 -148 425C-145.239 425 -143 427.239 -143 430Z" fill="white" fill-opacity="0.1"/>
<path d="M-143 453C-143 455.761 -145.239 458 -148 458C-150.761 458 -153 455.761 -153 453C-153 450.239 -150.761 448 -148 448C-145.239 448 -143 450.239 -143 453Z" fill="white" fill-opacity="0.1"/>
<path d="M-120 85C-120 87.7614 -122.239 90 -125 90C-127.761 90 -130 87.7614 -130 85C-130 82.2386 -127.761 80 -125 80C-122.239 80 -120 82.2386 -120 85Z" fill="white" fill-opacity="0.1"/>
<path d="M-120 108C-120 110.761 -122.239 113 -125 113C-127.761 113 -130 110.761 -130 108C-130 105.239 -127.761 103 -125 103C-122.239 103 -120 105.239 -120 108Z" fill="white" fill-opacity="0.1"/>
<path d="M-120 131C-120 133.761 -122.239 136 -125 136C-127.761 136 -130 133.761 -130 131C-130 128.239 -127.761 126 -125 126C-122.239 126 -120 128.239 -120 131Z" fill="white" fill-opacity="0.1"/>
<path d="M-120 154C-120 156.761 -122.239 159 -125 159C-127.761 159 -130 156.761 -130 154C-130 151.239 -127.761 149 -125 149C-122.239 149 -120 151.239 -120 154Z" fill="white" fill-opacity="0.1"/>
<path d="M-120 177C-120 179.761 -122.239 182 -125 182C-127.761 182 -130 179.761 -130 177C-130 174.239 -127.761 172 -125 172C-122.239 172 -120 174.239 -120 177Z" fill="white" fill-opacity="0.1"/>
<path d="M-120 200C-120 202.761 -122.239 205 -125 205C-127.761 205 -130 202.761 -130 200C-130 197.239 -127.761 195 -125 195C-122.239 195 -120 197.239 -120 200Z" fill="white" fill-opacity="0.1"/>
<path d="M-120 223C-120 225.761 -122.239 228 -125 228C-127.761 228 -130 225.761 -130 223C-130 220.239 -127.761 218 -125 218C-122.239 218 -120 220.239 -120 223Z" fill="white" fill-opacity="0.1"/>
<path d="M-120 246C-120 248.761 -122.239 251 -125 251C-127.761 251 -130 248.761 -130 246C-130 243.239 -127.761 241 -125 241C-122.239 241 -120 243.239 -120 246Z" fill="white" fill-opacity="0.1"/>
<path d="M-120 269C-120 271.761 -122.239 274 -125 274C-127.761 274 -130 271.761 -130 269C-130 266.239 -127.761 264 -125 264C-122.239 264 -120 266.239 -120 269Z" fill="white" fill-opacity="0.1"/>
<path d="M-120 292C-120 294.761 -122.239 297 -125 297C-127.761 297 -130 294.761 -130 292C-130 289.239 -127.761 287 -125 287C-122.239 287 -120 289.239 -120 292Z" fill="white" fill-opacity="0.1"/>
<path d="M-120 315C-120 317.761 -122.239 320 -125 320C-127.761 320 -130 317.761 -130 315C-130 312.239 -127.761 310 -125 310C-122.239 310 -120 312.239 -120 315Z" fill="white" fill-opacity="0.1"/>
<path d="M-120 338C-120 340.761 -122.239 343 -125 343C-127.761 343 -130 340.761 -130 338C-130 335.239 -127.761 333 -125 333C-122.239 333 -120 335.239 -120 338Z" fill="white" fill-opacity="0.1"/>
<path d="M-120 361C-120 363.761 -122.239 366 -125 366C-127.761 366 -130 363.761 -130 361C-130 358.239 -127.761 356 -125 356C-122.239 356 -120 358.239 -120 361Z" fill="white" fill-opacity="0.1"/>
<path d="M-120 384C-120 386.761 -122.239 389 -125 389C-127.761 389 -130 386.761 -130 384C-130 381.239 -127.761 379 -125 379C-122.239 379 -120 381.239 -120 384Z" fill="white" fill-opacity="0.1"/>
<path d="M-120 407C-120 409.761 -122.239 412 -125 412C-127.761 412 -130 409.761 -130 407C-130 404.239 -127.761 402 -125 402C-122.239 402 -120 404.239 -120 407Z" fill="white" fill-opacity="0.1"/>
<path d="M-120 430C-120 432.761 -122.239 435 -125 435C-127.761 435 -130 432.761 -130 430C-130 427.239 -127.761 425 -125 425C-122.239 425 -120 427.239 -120 430Z" fill="white" fill-opacity="0.1"/>
<path d="M-120 453C-120 455.761 -122.239 458 -125 458C-127.761 458 -130 455.761 -130 453C-130 450.239 -127.761 448 -125 448C-122.239 448 -120 450.239 -120 453Z" fill="white" fill-opacity="0.1"/>
<path d="M-97 85C-97 87.7614 -99.2386 90 -102 90C-104.761 90 -107 87.7614 -107 85C-107 82.2386 -104.761 80 -102 80C-99.2386 80 -97 82.2386 -97 85Z" fill="white" fill-opacity="0.1"/>
<path d="M-97 108C-97 110.761 -99.2386 113 -102 113C-104.761 113 -107 110.761 -107 108C-107 105.239 -104.761 103 -102 103C-99.2386 103 -97 105.239 -97 108Z" fill="white" fill-opacity="0.1"/>
<path d="M-97 131C-97 133.761 -99.2386 136 -102 136C-104.761 136 -107 133.761 -107 131C-107 128.239 -104.761 126 -102 126C-99.2386 126 -97 128.239 -97 131Z" fill="white" fill-opacity="0.1"/>
<path d="M-97 154C-97 156.761 -99.2386 159 -102 159C-104.761 159 -107 156.761 -107 154C-107 151.239 -104.761 149 -102 149C-99.2386 149 -97 151.239 -97 154Z" fill="white" fill-opacity="0.1"/>
<path d="M-97 177C-97 179.761 -99.2386 182 -102 182C-104.761 182 -107 179.761 -107 177C-107 174.239 -104.761 172 -102 172C-99.2386 172 -97 174.239 -97 177Z" fill="white" fill-opacity="0.1"/>
<path d="M-97 200C-97 202.761 -99.2386 205 -102 205C-104.761 205 -107 202.761 -107 200C-107 197.239 -104.761 195 -102 195C-99.2386 195 -97 197.239 -97 200Z" fill="white" fill-opacity="0.1"/>
<path d="M-97 223C-97 225.761 -99.2386 228 -102 228C-104.761 228 -107 225.761 -107 223C-107 220.239 -104.761 218 -102 218C-99.2386 218 -97 220.239 -97 223Z" fill="white" fill-opacity="0.1"/>
<path d="M-97 246C-97 248.761 -99.2386 251 -102 251C-104.761 251 -107 248.761 -107 246C-107 243.239 -104.761 241 -102 241C-99.2386 241 -97 243.239 -97 246Z" fill="white" fill-opacity="0.1"/>
<path d="M-97 269C-97 271.761 -99.2386 274 -102 274C-104.761 274 -107 271.761 -107 269C-107 266.239 -104.761 264 -102 264C-99.2386 264 -97 266.239 -97 269Z" fill="white" fill-opacity="0.1"/>
<path d="M-97 292C-97 294.761 -99.2386 297 -102 297C-104.761 297 -107 294.761 -107 292C-107 289.239 -104.761 287 -102 287C-99.2386 287 -97 289.239 -97 292Z" fill="white" fill-opacity="0.1"/>
<path d="M-97 315C-97 317.761 -99.2386 320 -102 320C-104.761 320 -107 317.761 -107 315C-107 312.239 -104.761 310 -102 310C-99.2386 310 -97 312.239 -97 315Z" fill="white" fill-opacity="0.1"/>
<path d="M-97 338C-97 340.761 -99.2386 343 -102 343C-104.761 343 -107 340.761 -107 338C-107 335.239 -104.761 333 -102 333C-99.2386 333 -97 335.239 -97 338Z" fill="white" fill-opacity="0.1"/>
<path d="M-97 361C-97 363.761 -99.2386 366 -102 366C-104.761 366 -107 363.761 -107 361C-107 358.239 -104.761 356 -102 356C-99.2386 356 -97 358.239 -97 361Z" fill="white" fill-opacity="0.1"/>
<path d="M-97 384C-97 386.761 -99.2386 389 -102 389C-104.761 389 -107 386.761 -107 384C-107 381.239 -104.761 379 -102 379C-99.2386 379 -97 381.239 -97 384Z" fill="white" fill-opacity="0.1"/>
<path d="M-97 407C-97 409.761 -99.2386 412 -102 412C-104.761 412 -107 409.761 -107 407C-107 404.239 -104.761 402 -102 402C-99.2386 402 -97 404.239 -97 407Z" fill="white" fill-opacity="0.1"/>
<path d="M-97 430C-97 432.761 -99.2386 435 -102 435C-104.761 435 -107 432.761 -107 430C-107 427.239 -104.761 425 -102 425C-99.2386 425 -97 427.239 -97 430Z" fill="white" fill-opacity="0.1"/>
<path d="M-97 453C-97 455.761 -99.2386 458 -102 458C-104.761 458 -107 455.761 -107 453C-107 450.239 -104.761 448 -102 448C-99.2386 448 -97 450.239 -97 453Z" fill="white" fill-opacity="0.1"/>
<path d="M-74 85C-74 87.7614 -76.2386 90 -79 90C-81.7614 90 -84 87.7614 -84 85C-84 82.2386 -81.7614 80 -79 80C-76.2386 80 -74 82.2386 -74 85Z" fill="white" fill-opacity="0.1"/>
<path d="M-74 108C-74 110.761 -76.2386 113 -79 113C-81.7614 113 -84 110.761 -84 108C-84 105.239 -81.7614 103 -79 103C-76.2386 103 -74 105.239 -74 108Z" fill="white" fill-opacity="0.1"/>
<path d="M-74 131C-74 133.761 -76.2386 136 -79 136C-81.7614 136 -84 133.761 -84 131C-84 128.239 -81.7614 126 -79 126C-76.2386 126 -74 128.239 -74 131Z" fill="white" fill-opacity="0.1"/>
<path d="M-74 154C-74 156.761 -76.2386 159 -79 159C-81.7614 159 -84 156.761 -84 154C-84 151.239 -81.7614 149 -79 149C-76.2386 149 -74 151.239 -74 154Z" fill="white" fill-opacity="0.1"/>
<path d="M-74 177C-74 179.761 -76.2386 182 -79 182C-81.7614 182 -84 179.761 -84 177C-84 174.239 -81.7614 172 -79 172C-76.2386 172 -74 174.239 -74 177Z" fill="white" fill-opacity="0.1"/>
<path d="M-74 200C-74 202.761 -76.2386 205 -79 205C-81.7614 205 -84 202.761 -84 200C-84 197.239 -81.7614 195 -79 195C-76.2386 195 -74 197.239 -74 200Z" fill="white" fill-opacity="0.1"/>
<path d="M-74 223C-74 225.761 -76.2386 228 -79 228C-81.7614 228 -84 225.761 -84 223C-84 220.239 -81.7614 218 -79 218C-76.2386 218 -74 220.239 -74 223Z" fill="white" fill-opacity="0.1"/>
<path d="M-74 246C-74 248.761 -76.2386 251 -79 251C-81.7614 251 -84 248.761 -84 246C-84 243.239 -81.7614 241 -79 241C-76.2386 241 -74 243.239 -74 246Z" fill="white" fill-opacity="0.1"/>
<path d="M-74 269C-74 271.761 -76.2386 274 -79 274C-81.7614 274 -84 271.761 -84 269C-84 266.239 -81.7614 264 -79 264C-76.2386 264 -74 266.239 -74 269Z" fill="white" fill-opacity="0.1"/>
<path d="M-74 292C-74 294.761 -76.2386 297 -79 297C-81.7614 297 -84 294.761 -84 292C-84 289.239 -81.7614 287 -79 287C-76.2386 287 -74 289.239 -74 292Z" fill="white" fill-opacity="0.1"/>
<path d="M-74 315C-74 317.761 -76.2386 320 -79 320C-81.7614 320 -84 317.761 -84 315C-84 312.239 -81.7614 310 -79 310C-76.2386 310 -74 312.239 -74 315Z" fill="white" fill-opacity="0.1"/>
<path d="M-74 338C-74 340.761 -76.2386 343 -79 343C-81.7614 343 -84 340.761 -84 338C-84 335.239 -81.7614 333 -79 333C-76.2386 333 -74 335.239 -74 338Z" fill="white" fill-opacity="0.1"/>
<path d="M-74 361C-74 363.761 -76.2386 366 -79 366C-81.7614 366 -84 363.761 -84 361C-84 358.239 -81.7614 356 -79 356C-76.2386 356 -74 358.239 -74 361Z" fill="white" fill-opacity="0.1"/>
<path d="M-74 384C-74 386.761 -76.2386 389 -79 389C-81.7614 389 -84 386.761 -84 384C-84 381.239 -81.7614 379 -79 379C-76.2386 379 -74 381.239 -74 384Z" fill="white" fill-opacity="0.1"/>
<path d="M-74 407C-74 409.761 -76.2386 412 -79 412C-81.7614 412 -84 409.761 -84 407C-84 404.239 -81.7614 402 -79 402C-76.2386 402 -74 404.239 -74 407Z" fill="white" fill-opacity="0.1"/>
<path d="M-74 430C-74 432.761 -76.2386 435 -79 435C-81.7614 435 -84 432.761 -84 430C-84 427.239 -81.7614 425 -79 425C-76.2386 425 -74 427.239 -74 430Z" fill="white" fill-opacity="0.1"/>
<path d="M-74 453C-74 455.761 -76.2386 458 -79 458C-81.7614 458 -84 455.761 -84 453C-84 450.239 -81.7614 448 -79 448C-76.2386 448 -74 450.239 -74 453Z" fill="white" fill-opacity="0.1"/>
<path d="M-51 85C-51 87.7614 -53.2386 90 -56 90C-58.7614 90 -61 87.7614 -61 85C-61 82.2386 -58.7614 80 -56 80C-53.2386 80 -51 82.2386 -51 85Z" fill="white" fill-opacity="0.1"/>
<path d="M-51 108C-51 110.761 -53.2386 113 -56 113C-58.7614 113 -61 110.761 -61 108C-61 105.239 -58.7614 103 -56 103C-53.2386 103 -51 105.239 -51 108Z" fill="white" fill-opacity="0.1"/>
<path d="M-51 131C-51 133.761 -53.2386 136 -56 136C-58.7614 136 -61 133.761 -61 131C-61 128.239 -58.7614 126 -56 126C-53.2386 126 -51 128.239 -51 131Z" fill="white" fill-opacity="0.1"/>
<path d="M-51 154C-51 156.761 -53.2386 159 -56 159C-58.7614 159 -61 156.761 -61 154C-61 151.239 -58.7614 149 -56 149C-53.2386 149 -51 151.239 -51 154Z" fill="white" fill-opacity="0.1"/>
<path d="M-51 177C-51 179.761 -53.2386 182 -56 182C-58.7614 182 -61 179.761 -61 177C-61 174.239 -58.7614 172 -56 172C-53.2386 172 -51 174.239 -51 177Z" fill="white" fill-opacity="0.1"/>
<path d="M-51 200C-51 202.761 -53.2386 205 -56 205C-58.7614 205 -61 202.761 -61 200C-61 197.239 -58.7614 195 -56 195C-53.2386 195 -51 197.239 -51 200Z" fill="white" fill-opacity="0.1"/>
<path d="M-51 223C-51 225.761 -53.2386 228 -56 228C-58.7614 228 -61 225.761 -61 223C-61 220.239 -58.7614 218 -56 218C-53.2386 218 -51 220.239 -51 223Z" fill="white" fill-opacity="0.1"/>
<path d="M-51 246C-51 248.761 -53.2386 251 -56 251C-58.7614 251 -61 248.761 -61 246C-61 243.239 -58.7614 241 -56 241C-53.2386 241 -51 243.239 -51 246Z" fill="white" fill-opacity="0.1"/>
<path d="M-51 269C-51 271.761 -53.2386 274 -56 274C-58.7614 274 -61 271.761 -61 269C-61 266.239 -58.7614 264 -56 264C-53.2386 264 -51 266.239 -51 269Z" fill="white" fill-opacity="0.1"/>
<path d="M-51 292C-51 294.761 -53.2386 297 -56 297C-58.7614 297 -61 294.761 -61 292C-61 289.239 -58.7614 287 -56 287C-53.2386 287 -51 289.239 -51 292Z" fill="white" fill-opacity="0.1"/>
<path d="M-51 315C-51 317.761 -53.2386 320 -56 320C-58.7614 320 -61 317.761 -61 315C-61 312.239 -58.7614 310 -56 310C-53.2386 310 -51 312.239 -51 315Z" fill="white" fill-opacity="0.1"/>
<path d="M-51 338C-51 340.761 -53.2386 343 -56 343C-58.7614 343 -61 340.761 -61 338C-61 335.239 -58.7614 333 -56 333C-53.2386 333 -51 335.239 -51 338Z" fill="white" fill-opacity="0.1"/>
<path d="M-51 361C-51 363.761 -53.2386 366 -56 366C-58.7614 366 -61 363.761 -61 361C-61 358.239 -58.7614 356 -56 356C-53.2386 356 -51 358.239 -51 361Z" fill="white" fill-opacity="0.1"/>
<path d="M-51 384C-51 386.761 -53.2386 389 -56 389C-58.7614 389 -61 386.761 -61 384C-61 381.239 -58.7614 379 -56 379C-53.2386 379 -51 381.239 -51 384Z" fill="white" fill-opacity="0.1"/>
<path d="M-51 407C-51 409.761 -53.2386 412 -56 412C-58.7614 412 -61 409.761 -61 407C-61 404.239 -58.7614 402 -56 402C-53.2386 402 -51 404.239 -51 407Z" fill="white" fill-opacity="0.1"/>
<path d="M-51 430C-51 432.761 -53.2386 435 -56 435C-58.7614 435 -61 432.761 -61 430C-61 427.239 -58.7614 425 -56 425C-53.2386 425 -51 427.239 -51 430Z" fill="white" fill-opacity="0.1"/>
<path d="M-51 453C-51 455.761 -53.2386 458 -56 458C-58.7614 458 -61 455.761 -61 453C-61 450.239 -58.7614 448 -56 448C-53.2386 448 -51 450.239 -51 453Z" fill="white" fill-opacity="0.1"/>
<path d="M-28 85C-28 87.7614 -30.2386 90 -33 90C-35.7614 90 -38 87.7614 -38 85C-38 82.2386 -35.7614 80 -33 80C-30.2386 80 -28 82.2386 -28 85Z" fill="white" fill-opacity="0.1"/>
<path d="M-28 108C-28 110.761 -30.2386 113 -33 113C-35.7614 113 -38 110.761 -38 108C-38 105.239 -35.7614 103 -33 103C-30.2386 103 -28 105.239 -28 108Z" fill="white" fill-opacity="0.1"/>
<path d="M-28 131C-28 133.761 -30.2386 136 -33 136C-35.7614 136 -38 133.761 -38 131C-38 128.239 -35.7614 126 -33 126C-30.2386 126 -28 128.239 -28 131Z" fill="white" fill-opacity="0.1"/>
<path d="M-28 154C-28 156.761 -30.2386 159 -33 159C-35.7614 159 -38 156.761 -38 154C-38 151.239 -35.7614 149 -33 149C-30.2386 149 -28 151.239 -28 154Z" fill="white" fill-opacity="0.1"/>
<path d="M-28 177C-28 179.761 -30.2386 182 -33 182C-35.7614 182 -38 179.761 -38 177C-38 174.239 -35.7614 172 -33 172C-30.2386 172 -28 174.239 -28 177Z" fill="white" fill-opacity="0.1"/>
<path d="M-28 200C-28 202.761 -30.2386 205 -33 205C-35.7614 205 -38 202.761 -38 200C-38 197.239 -35.7614 195 -33 195C-30.2386 195 -28 197.239 -28 200Z" fill="white" fill-opacity="0.1"/>
<path d="M-28 223C-28 225.761 -30.2386 228 -33 228C-35.7614 228 -38 225.761 -38 223C-38 220.239 -35.7614 218 -33 218C-30.2386 218 -28 220.239 -28 223Z" fill="white" fill-opacity="0.1"/>
<path d="M-28 246C-28 248.761 -30.2386 251 -33 251C-35.7614 251 -38 248.761 -38 246C-38 243.239 -35.7614 241 -33 241C-30.2386 241 -28 243.239 -28 246Z" fill="white" fill-opacity="0.1"/>
<path d="M-28 269C-28 271.761 -30.2386 274 -33 274C-35.7614 274 -38 271.761 -38 269C-38 266.239 -35.7614 264 -33 264C-30.2386 264 -28 266.239 -28 269Z" fill="white" fill-opacity="0.1"/>
<path d="M-28 292C-28 294.761 -30.2386 297 -33 297C-35.7614 297 -38 294.761 -38 292C-38 289.239 -35.7614 287 -33 287C-30.2386 287 -28 289.239 -28 292Z" fill="white" fill-opacity="0.1"/>
<path d="M-28 315C-28 317.761 -30.2386 320 -33 320C-35.7614 320 -38 317.761 -38 315C-38 312.239 -35.7614 310 -33 310C-30.2386 310 -28 312.239 -28 315Z" fill="white" fill-opacity="0.1"/>
<path d="M-28 338C-28 340.761 -30.2386 343 -33 343C-35.7614 343 -38 340.761 -38 338C-38 335.239 -35.7614 333 -33 333C-30.2386 333 -28 335.239 -28 338Z" fill="white" fill-opacity="0.1"/>
<path d="M-28 361C-28 363.761 -30.2386 366 -33 366C-35.7614 366 -38 363.761 -38 361C-38 358.239 -35.7614 356 -33 356C-30.2386 356 -28 358.239 -28 361Z" fill="white" fill-opacity="0.1"/>
<path d="M-28 384C-28 386.761 -30.2386 389 -33 389C-35.7614 389 -38 386.761 -38 384C-38 381.239 -35.7614 379 -33 379C-30.2386 379 -28 381.239 -28 384Z" fill="white" fill-opacity="0.1"/>
<path d="M-28 407C-28 409.761 -30.2386 412 -33 412C-35.7614 412 -38 409.761 -38 407C-38 404.239 -35.7614 402 -33 402C-30.2386 402 -28 404.239 -28 407Z" fill="white" fill-opacity="0.1"/>
<path d="M-28 430C-28 432.761 -30.2386 435 -33 435C-35.7614 435 -38 432.761 -38 430C-38 427.239 -35.7614 425 -33 425C-30.2386 425 -28 427.239 -28 430Z" fill="white" fill-opacity="0.1"/>
<path d="M-28 453C-28 455.761 -30.2386 458 -33 458C-35.7614 458 -38 455.761 -38 453C-38 450.239 -35.7614 448 -33 448C-30.2386 448 -28 450.239 -28 453Z" fill="white" fill-opacity="0.1"/>
<path d="M-5 85C-5 87.7614 -7.23857 90 -10 90C-12.7614 90 -15 87.7614 -15 85C-15 82.2386 -12.7614 80 -10 80C-7.23857 80 -5 82.2386 -5 85Z" fill="white" fill-opacity="0.1"/>
<path d="M-5 108C-5 110.761 -7.23857 113 -10 113C-12.7614 113 -15 110.761 -15 108C-15 105.239 -12.7614 103 -10 103C-7.23857 103 -5 105.239 -5 108Z" fill="white" fill-opacity="0.1"/>
<path d="M-5 131C-5 133.761 -7.23857 136 -10 136C-12.7614 136 -15 133.761 -15 131C-15 128.239 -12.7614 126 -10 126C-7.23857 126 -5 128.239 -5 131Z" fill="white" fill-opacity="0.1"/>
<path d="M-5 154C-5 156.761 -7.23857 159 -10 159C-12.7614 159 -15 156.761 -15 154C-15 151.239 -12.7614 149 -10 149C-7.23857 149 -5 151.239 -5 154Z" fill="white" fill-opacity="0.1"/>
<path d="M-5 177C-5 179.761 -7.23857 182 -10 182C-12.7614 182 -15 179.761 -15 177C-15 174.239 -12.7614 172 -10 172C-7.23857 172 -5 174.239 -5 177Z" fill="white" fill-opacity="0.1"/>
<path d="M-5 200C-5 202.761 -7.23857 205 -10 205C-12.7614 205 -15 202.761 -15 200C-15 197.239 -12.7614 195 -10 195C-7.23857 195 -5 197.239 -5 200Z" fill="white" fill-opacity="0.1"/>
<path d="M-5 223C-5 225.761 -7.23857 228 -10 228C-12.7614 228 -15 225.761 -15 223C-15 220.239 -12.7614 218 -10 218C-7.23857 218 -5 220.239 -5 223Z" fill="white" fill-opacity="0.1"/>
<path d="M-5 246C-5 248.761 -7.23857 251 -10 251C-12.7614 251 -15 248.761 -15 246C-15 243.239 -12.7614 241 -10 241C-7.23857 241 -5 243.239 -5 246Z" fill="white" fill-opacity="0.1"/>
<path d="M-5 269C-5 271.761 -7.23857 274 -10 274C-12.7614 274 -15 271.761 -15 269C-15 266.239 -12.7614 264 -10 264C-7.23857 264 -5 266.239 -5 269Z" fill="white" fill-opacity="0.1"/>
<path d="M-5 292C-5 294.761 -7.23857 297 -10 297C-12.7614 297 -15 294.761 -15 292C-15 289.239 -12.7614 287 -10 287C-7.23857 287 -5 289.239 -5 292Z" fill="white" fill-opacity="0.1"/>
<path d="M-5 315C-5 317.761 -7.23857 320 -10 320C-12.7614 320 -15 317.761 -15 315C-15 312.239 -12.7614 310 -10 310C-7.23857 310 -5 312.239 -5 315Z" fill="white" fill-opacity="0.1"/>
<path d="M-5 338C-5 340.761 -7.23857 343 -10 343C-12.7614 343 -15 340.761 -15 338C-15 335.239 -12.7614 333 -10 333C-7.23857 333 -5 335.239 -5 338Z" fill="white" fill-opacity="0.1"/>
<path d="M-5 361C-5 363.761 -7.23857 366 -10 366C-12.7614 366 -15 363.761 -15 361C-15 358.239 -12.7614 356 -10 356C-7.23857 356 -5 358.239 -5 361Z" fill="white" fill-opacity="0.1"/>
<path d="M-5 384C-5 386.761 -7.23857 389 -10 389C-12.7614 389 -15 386.761 -15 384C-15 381.239 -12.7614 379 -10 379C-7.23857 379 -5 381.239 -5 384Z" fill="white" fill-opacity="0.1"/>
<path d="M-5 407C-5 409.761 -7.23857 412 -10 412C-12.7614 412 -15 409.761 -15 407C-15 404.239 -12.7614 402 -10 402C-7.23857 402 -5 404.239 -5 407Z" fill="white" fill-opacity="0.1"/>
<path d="M-5 430C-5 432.761 -7.23857 435 -10 435C-12.7614 435 -15 432.761 -15 430C-15 427.239 -12.7614 425 -10 425C-7.23857 425 -5 427.239 -5 430Z" fill="white" fill-opacity="0.1"/>
<path d="M-5 453C-5 455.761 -7.23857 458 -10 458C-12.7614 458 -15 455.761 -15 453C-15 450.239 -12.7614 448 -10 448C-7.23857 448 -5 450.239 -5 453Z" fill="white" fill-opacity="0.1"/>
<path d="M18 85C18 87.7614 15.7614 90 13 90C10.2386 90 8 87.7614 8 85C8 82.2386 10.2386 80 13 80C15.7614 80 18 82.2386 18 85Z" fill="white" fill-opacity="0.1"/>
<path d="M18 108C18 110.761 15.7614 113 13 113C10.2386 113 8 110.761 8 108C8 105.239 10.2386 103 13 103C15.7614 103 18 105.239 18 108Z" fill="white" fill-opacity="0.1"/>
<path d="M18 131C18 133.761 15.7614 136 13 136C10.2386 136 8 133.761 8 131C8 128.239 10.2386 126 13 126C15.7614 126 18 128.239 18 131Z" fill="white" fill-opacity="0.1"/>
<path d="M18 154C18 156.761 15.7614 159 13 159C10.2386 159 8 156.761 8 154C8 151.239 10.2386 149 13 149C15.7614 149 18 151.239 18 154Z" fill="white" fill-opacity="0.1"/>
<path d="M18 177C18 179.761 15.7614 182 13 182C10.2386 182 8 179.761 8 177C8 174.239 10.2386 172 13 172C15.7614 172 18 174.239 18 177Z" fill="white" fill-opacity="0.1"/>
<path d="M18 200C18 202.761 15.7614 205 13 205C10.2386 205 8 202.761 8 200C8 197.239 10.2386 195 13 195C15.7614 195 18 197.239 18 200Z" fill="white" fill-opacity="0.1"/>
<path d="M18 223C18 225.761 15.7614 228 13 228C10.2386 228 8 225.761 8 223C8 220.239 10.2386 218 13 218C15.7614 218 18 220.239 18 223Z" fill="white" fill-opacity="0.1"/>
<path d="M18 246C18 248.761 15.7614 251 13 251C10.2386 251 8 248.761 8 246C8 243.239 10.2386 241 13 241C15.7614 241 18 243.239 18 246Z" fill="white" fill-opacity="0.1"/>
<path d="M18 269C18 271.761 15.7614 274 13 274C10.2386 274 8 271.761 8 269C8 266.239 10.2386 264 13 264C15.7614 264 18 266.239 18 269Z" fill="white" fill-opacity="0.1"/>
<path d="M18 292C18 294.761 15.7614 297 13 297C10.2386 297 8 294.761 8 292C8 289.239 10.2386 287 13 287C15.7614 287 18 289.239 18 292Z" fill="white" fill-opacity="0.1"/>
<path d="M18 315C18 317.761 15.7614 320 13 320C10.2386 320 8 317.761 8 315C8 312.239 10.2386 310 13 310C15.7614 310 18 312.239 18 315Z" fill="white" fill-opacity="0.1"/>
<path d="M18 338C18 340.761 15.7614 343 13 343C10.2386 343 8 340.761 8 338C8 335.239 10.2386 333 13 333C15.7614 333 18 335.239 18 338Z" fill="white" fill-opacity="0.1"/>
<path d="M18 361C18 363.761 15.7614 366 13 366C10.2386 366 8 363.761 8 361C8 358.239 10.2386 356 13 356C15.7614 356 18 358.239 18 361Z" fill="white" fill-opacity="0.1"/>
<path d="M18 384C18 386.761 15.7614 389 13 389C10.2386 389 8 386.761 8 384C8 381.239 10.2386 379 13 379C15.7614 379 18 381.239 18 384Z" fill="white" fill-opacity="0.1"/>
<path d="M18 407C18 409.761 15.7614 412 13 412C10.2386 412 8 409.761 8 407C8 404.239 10.2386 402 13 402C15.7614 402 18 404.239 18 407Z" fill="white" fill-opacity="0.1"/>
<path d="M18 430C18 432.761 15.7614 435 13 435C10.2386 435 8 432.761 8 430C8 427.239 10.2386 425 13 425C15.7614 425 18 427.239 18 430Z" fill="white" fill-opacity="0.1"/>
<path d="M18 453C18 455.761 15.7614 458 13 458C10.2386 458 8 455.761 8 453C8 450.239 10.2386 448 13 448C15.7614 448 18 450.239 18 453Z" fill="white" fill-opacity="0.1"/>
<path d="M41 85C41 87.7614 38.7614 90 36 90C33.2386 90 31 87.7614 31 85C31 82.2386 33.2386 80 36 80C38.7614 80 41 82.2386 41 85Z" fill="white" fill-opacity="0.1"/>
<path d="M41 108C41 110.761 38.7614 113 36 113C33.2386 113 31 110.761 31 108C31 105.239 33.2386 103 36 103C38.7614 103 41 105.239 41 108Z" fill="white" fill-opacity="0.1"/>
<path d="M41 131C41 133.761 38.7614 136 36 136C33.2386 136 31 133.761 31 131C31 128.239 33.2386 126 36 126C38.7614 126 41 128.239 41 131Z" fill="white" fill-opacity="0.1"/>
<path d="M41 154C41 156.761 38.7614 159 36 159C33.2386 159 31 156.761 31 154C31 151.239 33.2386 149 36 149C38.7614 149 41 151.239 41 154Z" fill="white" fill-opacity="0.1"/>
<path d="M41 177C41 179.761 38.7614 182 36 182C33.2386 182 31 179.761 31 177C31 174.239 33.2386 172 36 172C38.7614 172 41 174.239 41 177Z" fill="white" fill-opacity="0.1"/>
<path d="M41 200C41 202.761 38.7614 205 36 205C33.2386 205 31 202.761 31 200C31 197.239 33.2386 195 36 195C38.7614 195 41 197.239 41 200Z" fill="white" fill-opacity="0.1"/>
<path d="M41 223C41 225.761 38.7614 228 36 228C33.2386 228 31 225.761 31 223C31 220.239 33.2386 218 36 218C38.7614 218 41 220.239 41 223Z" fill="white" fill-opacity="0.1"/>
<path d="M41 246C41 248.761 38.7614 251 36 251C33.2386 251 31 248.761 31 246C31 243.239 33.2386 241 36 241C38.7614 241 41 243.239 41 246Z" fill="white" fill-opacity="0.1"/>
<path d="M41 269C41 271.761 38.7614 274 36 274C33.2386 274 31 271.761 31 269C31 266.239 33.2386 264 36 264C38.7614 264 41 266.239 41 269Z" fill="white" fill-opacity="0.1"/>
<path d="M41 292C41 294.761 38.7614 297 36 297C33.2386 297 31 294.761 31 292C31 289.239 33.2386 287 36 287C38.7614 287 41 289.239 41 292Z" fill="white" fill-opacity="0.1"/>
<path d="M41 315C41 317.761 38.7614 320 36 320C33.2386 320 31 317.761 31 315C31 312.239 33.2386 310 36 310C38.7614 310 41 312.239 41 315Z" fill="white" fill-opacity="0.1"/>
<path d="M41 338C41 340.761 38.7614 343 36 343C33.2386 343 31 340.761 31 338C31 335.239 33.2386 333 36 333C38.7614 333 41 335.239 41 338Z" fill="white" fill-opacity="0.1"/>
<path d="M41 361C41 363.761 38.7614 366 36 366C33.2386 366 31 363.761 31 361C31 358.239 33.2386 356 36 356C38.7614 356 41 358.239 41 361Z" fill="white" fill-opacity="0.1"/>
<path d="M41 384C41 386.761 38.7614 389 36 389C33.2386 389 31 386.761 31 384C31 381.239 33.2386 379 36 379C38.7614 379 41 381.239 41 384Z" fill="white" fill-opacity="0.1"/>
<path d="M41 407C41 409.761 38.7614 412 36 412C33.2386 412 31 409.761 31 407C31 404.239 33.2386 402 36 402C38.7614 402 41 404.239 41 407Z" fill="white" fill-opacity="0.1"/>
<path d="M41 430C41 432.761 38.7614 435 36 435C33.2386 435 31 432.761 31 430C31 427.239 33.2386 425 36 425C38.7614 425 41 427.239 41 430Z" fill="white" fill-opacity="0.1"/>
<path d="M41 453C41 455.761 38.7614 458 36 458C33.2386 458 31 455.761 31 453C31 450.239 33.2386 448 36 448C38.7614 448 41 450.239 41 453Z" fill="white" fill-opacity="0.1"/>
<path d="M64 85C64 87.7614 61.7614 90 59 90C56.2386 90 54 87.7614 54 85C54 82.2386 56.2386 80 59 80C61.7614 80 64 82.2386 64 85Z" fill="white" fill-opacity="0.1"/>
<path d="M64 108C64 110.761 61.7614 113 59 113C56.2386 113 54 110.761 54 108C54 105.239 56.2386 103 59 103C61.7614 103 64 105.239 64 108Z" fill="white" fill-opacity="0.1"/>
<path d="M64 131C64 133.761 61.7614 136 59 136C56.2386 136 54 133.761 54 131C54 128.239 56.2386 126 59 126C61.7614 126 64 128.239 64 131Z" fill="white" fill-opacity="0.1"/>
<path d="M64 154C64 156.761 61.7614 159 59 159C56.2386 159 54 156.761 54 154C54 151.239 56.2386 149 59 149C61.7614 149 64 151.239 64 154Z" fill="white" fill-opacity="0.1"/>
<path d="M64 177C64 179.761 61.7614 182 59 182C56.2386 182 54 179.761 54 177C54 174.239 56.2386 172 59 172C61.7614 172 64 174.239 64 177Z" fill="white" fill-opacity="0.1"/>
<path d="M64 200C64 202.761 61.7614 205 59 205C56.2386 205 54 202.761 54 200C54 197.239 56.2386 195 59 195C61.7614 195 64 197.239 64 200Z" fill="white" fill-opacity="0.1"/>
<path d="M64 223C64 225.761 61.7614 228 59 228C56.2386 228 54 225.761 54 223C54 220.239 56.2386 218 59 218C61.7614 218 64 220.239 64 223Z" fill="white" fill-opacity="0.1"/>
<path d="M64 246C64 248.761 61.7614 251 59 251C56.2386 251 54 248.761 54 246C54 243.239 56.2386 241 59 241C61.7614 241 64 243.239 64 246Z" fill="white" fill-opacity="0.1"/>
<path d="M64 269C64 271.761 61.7614 274 59 274C56.2386 274 54 271.761 54 269C54 266.239 56.2386 264 59 264C61.7614 264 64 266.239 64 269Z" fill="white" fill-opacity="0.1"/>
<path d="M64 292C64 294.761 61.7614 297 59 297C56.2386 297 54 294.761 54 292C54 289.239 56.2386 287 59 287C61.7614 287 64 289.239 64 292Z" fill="white" fill-opacity="0.1"/>
<path d="M64 315C64 317.761 61.7614 320 59 320C56.2386 320 54 317.761 54 315C54 312.239 56.2386 310 59 310C61.7614 310 64 312.239 64 315Z" fill="white" fill-opacity="0.1"/>
<path d="M64 338C64 340.761 61.7614 343 59 343C56.2386 343 54 340.761 54 338C54 335.239 56.2386 333 59 333C61.7614 333 64 335.239 64 338Z" fill="white" fill-opacity="0.1"/>
<path d="M64 361C64 363.761 61.7614 366 59 366C56.2386 366 54 363.761 54 361C54 358.239 56.2386 356 59 356C61.7614 356 64 358.239 64 361Z" fill="white" fill-opacity="0.1"/>
<path d="M64 384C64 386.761 61.7614 389 59 389C56.2386 389 54 386.761 54 384C54 381.239 56.2386 379 59 379C61.7614 379 64 381.239 64 384Z" fill="white" fill-opacity="0.1"/>
<path d="M64 407C64 409.761 61.7614 412 59 412C56.2386 412 54 409.761 54 407C54 404.239 56.2386 402 59 402C61.7614 402 64 404.239 64 407Z" fill="white" fill-opacity="0.1"/>
<path d="M64 430C64 432.761 61.7614 435 59 435C56.2386 435 54 432.761 54 430C54 427.239 56.2386 425 59 425C61.7614 425 64 427.239 64 430Z" fill="white" fill-opacity="0.1"/>
<path d="M64 453C64 455.761 61.7614 458 59 458C56.2386 458 54 455.761 54 453C54 450.239 56.2386 448 59 448C61.7614 448 64 450.239 64 453Z" fill="white" fill-opacity="0.1"/>
<path d="M87 85C87 87.7614 84.7614 90 82 90C79.2386 90 77 87.7614 77 85C77 82.2386 79.2386 80 82 80C84.7614 80 87 82.2386 87 85Z" fill="white" fill-opacity="0.1"/>
<path d="M87 108C87 110.761 84.7614 113 82 113C79.2386 113 77 110.761 77 108C77 105.239 79.2386 103 82 103C84.7614 103 87 105.239 87 108Z" fill="white" fill-opacity="0.1"/>
<path d="M87 131C87 133.761 84.7614 136 82 136C79.2386 136 77 133.761 77 131C77 128.239 79.2386 126 82 126C84.7614 126 87 128.239 87 131Z" fill="white" fill-opacity="0.1"/>
<path d="M87 154C87 156.761 84.7614 159 82 159C79.2386 159 77 156.761 77 154C77 151.239 79.2386 149 82 149C84.7614 149 87 151.239 87 154Z" fill="white" fill-opacity="0.1"/>
<path d="M87 177C87 179.761 84.7614 182 82 182C79.2386 182 77 179.761 77 177C77 174.239 79.2386 172 82 172C84.7614 172 87 174.239 87 177Z" fill="white" fill-opacity="0.1"/>
<path d="M87 200C87 202.761 84.7614 205 82 205C79.2386 205 77 202.761 77 200C77 197.239 79.2386 195 82 195C84.7614 195 87 197.239 87 200Z" fill="white" fill-opacity="0.1"/>
<path d="M87 223C87 225.761 84.7614 228 82 228C79.2386 228 77 225.761 77 223C77 220.239 79.2386 218 82 218C84.7614 218 87 220.239 87 223Z" fill="white" fill-opacity="0.1"/>
<path d="M87 246C87 248.761 84.7614 251 82 251C79.2386 251 77 248.761 77 246C77 243.239 79.2386 241 82 241C84.7614 241 87 243.239 87 246Z" fill="white" fill-opacity="0.1"/>
<path d="M87 269C87 271.761 84.7614 274 82 274C79.2386 274 77 271.761 77 269C77 266.239 79.2386 264 82 264C84.7614 264 87 266.239 87 269Z" fill="white" fill-opacity="0.1"/>
<path d="M87 292C87 294.761 84.7614 297 82 297C79.2386 297 77 294.761 77 292C77 289.239 79.2386 287 82 287C84.7614 287 87 289.239 87 292Z" fill="white" fill-opacity="0.1"/>
<path d="M87 315C87 317.761 84.7614 320 82 320C79.2386 320 77 317.761 77 315C77 312.239 79.2386 310 82 310C84.7614 310 87 312.239 87 315Z" fill="white" fill-opacity="0.1"/>
<path d="M87 338C87 340.761 84.7614 343 82 343C79.2386 343 77 340.761 77 338C77 335.239 79.2386 333 82 333C84.7614 333 87 335.239 87 338Z" fill="white" fill-opacity="0.1"/>
<path d="M87 361C87 363.761 84.7614 366 82 366C79.2386 366 77 363.761 77 361C77 358.239 79.2386 356 82 356C84.7614 356 87 358.239 87 361Z" fill="white" fill-opacity="0.1"/>
<path d="M87 384C87 386.761 84.7614 389 82 389C79.2386 389 77 386.761 77 384C77 381.239 79.2386 379 82 379C84.7614 379 87 381.239 87 384Z" fill="white" fill-opacity="0.1"/>
<path d="M87 407C87 409.761 84.7614 412 82 412C79.2386 412 77 409.761 77 407C77 404.239 79.2386 402 82 402C84.7614 402 87 404.239 87 407Z" fill="white" fill-opacity="0.1"/>
<path d="M87 430C87 432.761 84.7614 435 82 435C79.2386 435 77 432.761 77 430C77 427.239 79.2386 425 82 425C84.7614 425 87 427.239 87 430Z" fill="white" fill-opacity="0.1"/>
<path d="M87 453C87 455.761 84.7614 458 82 458C79.2386 458 77 455.761 77 453C77 450.239 79.2386 448 82 448C84.7614 448 87 450.239 87 453Z" fill="white" fill-opacity="0.1"/>
<path d="M110 85C110 87.7614 107.761 90 105 90C102.239 90 100 87.7614 100 85C100 82.2386 102.239 80 105 80C107.761 80 110 82.2386 110 85Z" fill="white" fill-opacity="0.1"/>
<path d="M110 108C110 110.761 107.761 113 105 113C102.239 113 100 110.761 100 108C100 105.239 102.239 103 105 103C107.761 103 110 105.239 110 108Z" fill="white" fill-opacity="0.1"/>
<path d="M110 131C110 133.761 107.761 136 105 136C102.239 136 100 133.761 100 131C100 128.239 102.239 126 105 126C107.761 126 110 128.239 110 131Z" fill="white" fill-opacity="0.1"/>
<path d="M110 154C110 156.761 107.761 159 105 159C102.239 159 100 156.761 100 154C100 151.239 102.239 149 105 149C107.761 149 110 151.239 110 154Z" fill="white" fill-opacity="0.1"/>
<path d="M110 177C110 179.761 107.761 182 105 182C102.239 182 100 179.761 100 177C100 174.239 102.239 172 105 172C107.761 172 110 174.239 110 177Z" fill="white" fill-opacity="0.1"/>
<path d="M110 200C110 202.761 107.761 205 105 205C102.239 205 100 202.761 100 200C100 197.239 102.239 195 105 195C107.761 195 110 197.239 110 200Z" fill="white" fill-opacity="0.1"/>
<path d="M110 223C110 225.761 107.761 228 105 228C102.239 228 100 225.761 100 223C100 220.239 102.239 218 105 218C107.761 218 110 220.239 110 223Z" fill="white" fill-opacity="0.1"/>
<path d="M110 246C110 248.761 107.761 251 105 251C102.239 251 100 248.761 100 246C100 243.239 102.239 241 105 241C107.761 241 110 243.239 110 246Z" fill="white" fill-opacity="0.1"/>
<path d="M110 269C110 271.761 107.761 274 105 274C102.239 274 100 271.761 100 269C100 266.239 102.239 264 105 264C107.761 264 110 266.239 110 269Z" fill="white" fill-opacity="0.1"/>
<path d="M110 292C110 294.761 107.761 297 105 297C102.239 297 100 294.761 100 292C100 289.239 102.239 287 105 287C107.761 287 110 289.239 110 292Z" fill="white" fill-opacity="0.1"/>
<path d="M110 315C110 317.761 107.761 320 105 320C102.239 320 100 317.761 100 315C100 312.239 102.239 310 105 310C107.761 310 110 312.239 110 315Z" fill="white" fill-opacity="0.1"/>
<path d="M110 338C110 340.761 107.761 343 105 343C102.239 343 100 340.761 100 338C100 335.239 102.239 333 105 333C107.761 333 110 335.239 110 338Z" fill="white" fill-opacity="0.1"/>
<path d="M110 361C110 363.761 107.761 366 105 366C102.239 366 100 363.761 100 361C100 358.239 102.239 356 105 356C107.761 356 110 358.239 110 361Z" fill="white" fill-opacity="0.1"/>
<path d="M110 384C110 386.761 107.761 389 105 389C102.239 389 100 386.761 100 384C100 381.239 102.239 379 105 379C107.761 379 110 381.239 110 384Z" fill="white" fill-opacity="0.1"/>
<path d="M110 407C110 409.761 107.761 412 105 412C102.239 412 100 409.761 100 407C100 404.239 102.239 402 105 402C107.761 402 110 404.239 110 407Z" fill="white" fill-opacity="0.1"/>
<path d="M110 430C110 432.761 107.761 435 105 435C102.239 435 100 432.761 100 430C100 427.239 102.239 425 105 425C107.761 425 110 427.239 110 430Z" fill="white" fill-opacity="0.1"/>
<path d="M110 453C110 455.761 107.761 458 105 458C102.239 458 100 455.761 100 453C100 450.239 102.239 448 105 448C107.761 448 110 450.239 110 453Z" fill="white" fill-opacity="0.1"/>
<path d="M133 85C133 87.7614 130.761 90 128 90C125.239 90 123 87.7614 123 85C123 82.2386 125.239 80 128 80C130.761 80 133 82.2386 133 85Z" fill="white" fill-opacity="0.1"/>
<path d="M133 108C133 110.761 130.761 113 128 113C125.239 113 123 110.761 123 108C123 105.239 125.239 103 128 103C130.761 103 133 105.239 133 108Z" fill="white" fill-opacity="0.1"/>
<path d="M133 131C133 133.761 130.761 136 128 136C125.239 136 123 133.761 123 131C123 128.239 125.239 126 128 126C130.761 126 133 128.239 133 131Z" fill="white" fill-opacity="0.1"/>
<path d="M133 154C133 156.761 130.761 159 128 159C125.239 159 123 156.761 123 154C123 151.239 125.239 149 128 149C130.761 149 133 151.239 133 154Z" fill="white" fill-opacity="0.1"/>
<path d="M133 177C133 179.761 130.761 182 128 182C125.239 182 123 179.761 123 177C123 174.239 125.239 172 128 172C130.761 172 133 174.239 133 177Z" fill="white" fill-opacity="0.1"/>
<path d="M133 200C133 202.761 130.761 205 128 205C125.239 205 123 202.761 123 200C123 197.239 125.239 195 128 195C130.761 195 133 197.239 133 200Z" fill="white" fill-opacity="0.1"/>
<path d="M133 223C133 225.761 130.761 228 128 228C125.239 228 123 225.761 123 223C123 220.239 125.239 218 128 218C130.761 218 133 220.239 133 223Z" fill="white" fill-opacity="0.1"/>
<path d="M133 246C133 248.761 130.761 251 128 251C125.239 251 123 248.761 123 246C123 243.239 125.239 241 128 241C130.761 241 133 243.239 133 246Z" fill="white" fill-opacity="0.1"/>
<path d="M133 269C133 271.761 130.761 274 128 274C125.239 274 123 271.761 123 269C123 266.239 125.239 264 128 264C130.761 264 133 266.239 133 269Z" fill="white" fill-opacity="0.1"/>
<path d="M133 292C133 294.761 130.761 297 128 297C125.239 297 123 294.761 123 292C123 289.239 125.239 287 128 287C130.761 287 133 289.239 133 292Z" fill="white" fill-opacity="0.1"/>
<path d="M133 315C133 317.761 130.761 320 128 320C125.239 320 123 317.761 123 315C123 312.239 125.239 310 128 310C130.761 310 133 312.239 133 315Z" fill="white" fill-opacity="0.1"/>
<path d="M133 338C133 340.761 130.761 343 128 343C125.239 343 123 340.761 123 338C123 335.239 125.239 333 128 333C130.761 333 133 335.239 133 338Z" fill="white" fill-opacity="0.1"/>
<path d="M133 361C133 363.761 130.761 366 128 366C125.239 366 123 363.761 123 361C123 358.239 125.239 356 128 356C130.761 356 133 358.239 133 361Z" fill="white" fill-opacity="0.1"/>
<path d="M133 384C133 386.761 130.761 389 128 389C125.239 389 123 386.761 123 384C123 381.239 125.239 379 128 379C130.761 379 133 381.239 133 384Z" fill="white" fill-opacity="0.1"/>
<path d="M133 407C133 409.761 130.761 412 128 412C125.239 412 123 409.761 123 407C123 404.239 125.239 402 128 402C130.761 402 133 404.239 133 407Z" fill="white" fill-opacity="0.1"/>
<path d="M133 430C133 432.761 130.761 435 128 435C125.239 435 123 432.761 123 430C123 427.239 125.239 425 128 425C130.761 425 133 427.239 133 430Z" fill="white" fill-opacity="0.1"/>
<path d="M133 453C133 455.761 130.761 458 128 458C125.239 458 123 455.761 123 453C123 450.239 125.239 448 128 448C130.761 448 133 450.239 133 453Z" fill="white" fill-opacity="0.1"/>
<path d="M156 85C156 87.7614 153.761 90 151 90C148.239 90 146 87.7614 146 85C146 82.2386 148.239 80 151 80C153.761 80 156 82.2386 156 85Z" fill="white" fill-opacity="0.1"/>
<path d="M156 108C156 110.761 153.761 113 151 113C148.239 113 146 110.761 146 108C146 105.239 148.239 103 151 103C153.761 103 156 105.239 156 108Z" fill="white" fill-opacity="0.1"/>
<path d="M156 131C156 133.761 153.761 136 151 136C148.239 136 146 133.761 146 131C146 128.239 148.239 126 151 126C153.761 126 156 128.239 156 131Z" fill="white" fill-opacity="0.1"/>
<path d="M156 154C156 156.761 153.761 159 151 159C148.239 159 146 156.761 146 154C146 151.239 148.239 149 151 149C153.761 149 156 151.239 156 154Z" fill="white" fill-opacity="0.1"/>
<path d="M156 177C156 179.761 153.761 182 151 182C148.239 182 146 179.761 146 177C146 174.239 148.239 172 151 172C153.761 172 156 174.239 156 177Z" fill="white" fill-opacity="0.1"/>
<path d="M156 200C156 202.761 153.761 205 151 205C148.239 205 146 202.761 146 200C146 197.239 148.239 195 151 195C153.761 195 156 197.239 156 200Z" fill="white" fill-opacity="0.1"/>
<path d="M156 223C156 225.761 153.761 228 151 228C148.239 228 146 225.761 146 223C146 220.239 148.239 218 151 218C153.761 218 156 220.239 156 223Z" fill="white" fill-opacity="0.1"/>
<path d="M156 246C156 248.761 153.761 251 151 251C148.239 251 146 248.761 146 246C146 243.239 148.239 241 151 241C153.761 241 156 243.239 156 246Z" fill="white" fill-opacity="0.1"/>
<path d="M156 269C156 271.761 153.761 274 151 274C148.239 274 146 271.761 146 269C146 266.239 148.239 264 151 264C153.761 264 156 266.239 156 269Z" fill="white" fill-opacity="0.1"/>
<path d="M156 292C156 294.761 153.761 297 151 297C148.239 297 146 294.761 146 292C146 289.239 148.239 287 151 287C153.761 287 156 289.239 156 292Z" fill="white" fill-opacity="0.1"/>
<path d="M156 315C156 317.761 153.761 320 151 320C148.239 320 146 317.761 146 315C146 312.239 148.239 310 151 310C153.761 310 156 312.239 156 315Z" fill="white" fill-opacity="0.1"/>
<path d="M156 338C156 340.761 153.761 343 151 343C148.239 343 146 340.761 146 338C146 335.239 148.239 333 151 333C153.761 333 156 335.239 156 338Z" fill="white" fill-opacity="0.1"/>
<path d="M156 361C156 363.761 153.761 366 151 366C148.239 366 146 363.761 146 361C146 358.239 148.239 356 151 356C153.761 356 156 358.239 156 361Z" fill="white" fill-opacity="0.1"/>
<path d="M156 384C156 386.761 153.761 389 151 389C148.239 389 146 386.761 146 384C146 381.239 148.239 379 151 379C153.761 379 156 381.239 156 384Z" fill="white" fill-opacity="0.1"/>
<path d="M156 407C156 409.761 153.761 412 151 412C148.239 412 146 409.761 146 407C146 404.239 148.239 402 151 402C153.761 402 156 404.239 156 407Z" fill="white" fill-opacity="0.1"/>
<path d="M156 430C156 432.761 153.761 435 151 435C148.239 435 146 432.761 146 430C146 427.239 148.239 425 151 425C153.761 425 156 427.239 156 430Z" fill="white" fill-opacity="0.1"/>
<path d="M156 453C156 455.761 153.761 458 151 458C148.239 458 146 455.761 146 453C146 450.239 148.239 448 151 448C153.761 448 156 450.239 156 453Z" fill="white" fill-opacity="0.1"/>
<path d="M179 85C179 87.7614 176.761 90 174 90C171.239 90 169 87.7614 169 85C169 82.2386 171.239 80 174 80C176.761 80 179 82.2386 179 85Z" fill="white" fill-opacity="0.1"/>
<path d="M179 108C179 110.761 176.761 113 174 113C171.239 113 169 110.761 169 108C169 105.239 171.239 103 174 103C176.761 103 179 105.239 179 108Z" fill="white" fill-opacity="0.1"/>
<path d="M179 131C179 133.761 176.761 136 174 136C171.239 136 169 133.761 169 131C169 128.239 171.239 126 174 126C176.761 126 179 128.239 179 131Z" fill="white" fill-opacity="0.1"/>
<path d="M179 154C179 156.761 176.761 159 174 159C171.239 159 169 156.761 169 154C169 151.239 171.239 149 174 149C176.761 149 179 151.239 179 154Z" fill="white" fill-opacity="0.1"/>
<path d="M179 177C179 179.761 176.761 182 174 182C171.239 182 169 179.761 169 177C169 174.239 171.239 172 174 172C176.761 172 179 174.239 179 177Z" fill="white" fill-opacity="0.1"/>
<path d="M179 200C179 202.761 176.761 205 174 205C171.239 205 169 202.761 169 200C169 197.239 171.239 195 174 195C176.761 195 179 197.239 179 200Z" fill="white" fill-opacity="0.1"/>
<path d="M179 223C179 225.761 176.761 228 174 228C171.239 228 169 225.761 169 223C169 220.239 171.239 218 174 218C176.761 218 179 220.239 179 223Z" fill="white" fill-opacity="0.1"/>
<path d="M179 246C179 248.761 176.761 251 174 251C171.239 251 169 248.761 169 246C169 243.239 171.239 241 174 241C176.761 241 179 243.239 179 246Z" fill="white" fill-opacity="0.1"/>
<path d="M179 269C179 271.761 176.761 274 174 274C171.239 274 169 271.761 169 269C169 266.239 171.239 264 174 264C176.761 264 179 266.239 179 269Z" fill="white" fill-opacity="0.1"/>
<path d="M179 292C179 294.761 176.761 297 174 297C171.239 297 169 294.761 169 292C169 289.239 171.239 287 174 287C176.761 287 179 289.239 179 292Z" fill="white" fill-opacity="0.1"/>
<path d="M179 315C179 317.761 176.761 320 174 320C171.239 320 169 317.761 169 315C169 312.239 171.239 310 174 310C176.761 310 179 312.239 179 315Z" fill="white" fill-opacity="0.1"/>
<path d="M179 338C179 340.761 176.761 343 174 343C171.239 343 169 340.761 169 338C169 335.239 171.239 333 174 333C176.761 333 179 335.239 179 338Z" fill="white" fill-opacity="0.1"/>
<path d="M179 361C179 363.761 176.761 366 174 366C171.239 366 169 363.761 169 361C169 358.239 171.239 356 174 356C176.761 356 179 358.239 179 361Z" fill="white" fill-opacity="0.1"/>
<path d="M179 384C179 386.761 176.761 389 174 389C171.239 389 169 386.761 169 384C169 381.239 171.239 379 174 379C176.761 379 179 381.239 179 384Z" fill="white" fill-opacity="0.1"/>
<path d="M179 407C179 409.761 176.761 412 174 412C171.239 412 169 409.761 169 407C169 404.239 171.239 402 174 402C176.761 402 179 404.239 179 407Z" fill="white" fill-opacity="0.1"/>
<path d="M179 430C179 432.761 176.761 435 174 435C171.239 435 169 432.761 169 430C169 427.239 171.239 425 174 425C176.761 425 179 427.239 179 430Z" fill="white" fill-opacity="0.1"/>
<path d="M179 453C179 455.761 176.761 458 174 458C171.239 458 169 455.761 169 453C169 450.239 171.239 448 174 448C176.761 448 179 450.239 179 453Z" fill="white" fill-opacity="0.1"/>
<path d="M202 85C202 87.7614 199.761 90 197 90C194.239 90 192 87.7614 192 85C192 82.2386 194.239 80 197 80C199.761 80 202 82.2386 202 85Z" fill="white" fill-opacity="0.1"/>
<path d="M202 108C202 110.761 199.761 113 197 113C194.239 113 192 110.761 192 108C192 105.239 194.239 103 197 103C199.761 103 202 105.239 202 108Z" fill="white" fill-opacity="0.1"/>
<path d="M202 131C202 133.761 199.761 136 197 136C194.239 136 192 133.761 192 131C192 128.239 194.239 126 197 126C199.761 126 202 128.239 202 131Z" fill="white" fill-opacity="0.1"/>
<path d="M202 154C202 156.761 199.761 159 197 159C194.239 159 192 156.761 192 154C192 151.239 194.239 149 197 149C199.761 149 202 151.239 202 154Z" fill="white" fill-opacity="0.1"/>
<path d="M202 177C202 179.761 199.761 182 197 182C194.239 182 192 179.761 192 177C192 174.239 194.239 172 197 172C199.761 172 202 174.239 202 177Z" fill="white" fill-opacity="0.1"/>
<path d="M202 200C202 202.761 199.761 205 197 205C194.239 205 192 202.761 192 200C192 197.239 194.239 195 197 195C199.761 195 202 197.239 202 200Z" fill="white" fill-opacity="0.1"/>
<path d="M202 223C202 225.761 199.761 228 197 228C194.239 228 192 225.761 192 223C192 220.239 194.239 218 197 218C199.761 218 202 220.239 202 223Z" fill="white" fill-opacity="0.1"/>
<path d="M202 246C202 248.761 199.761 251 197 251C194.239 251 192 248.761 192 246C192 243.239 194.239 241 197 241C199.761 241 202 243.239 202 246Z" fill="white" fill-opacity="0.1"/>
<path d="M202 269C202 271.761 199.761 274 197 274C194.239 274 192 271.761 192 269C192 266.239 194.239 264 197 264C199.761 264 202 266.239 202 269Z" fill="white" fill-opacity="0.1"/>
<path d="M202 292C202 294.761 199.761 297 197 297C194.239 297 192 294.761 192 292C192 289.239 194.239 287 197 287C199.761 287 202 289.239 202 292Z" fill="white" fill-opacity="0.1"/>
<path d="M202 315C202 317.761 199.761 320 197 320C194.239 320 192 317.761 192 315C192 312.239 194.239 310 197 310C199.761 310 202 312.239 202 315Z" fill="white" fill-opacity="0.1"/>
<path d="M202 338C202 340.761 199.761 343 197 343C194.239 343 192 340.761 192 338C192 335.239 194.239 333 197 333C199.761 333 202 335.239 202 338Z" fill="white" fill-opacity="0.1"/>
<path d="M202 361C202 363.761 199.761 366 197 366C194.239 366 192 363.761 192 361C192 358.239 194.239 356 197 356C199.761 356 202 358.239 202 361Z" fill="white" fill-opacity="0.1"/>
<path d="M202 384C202 386.761 199.761 389 197 389C194.239 389 192 386.761 192 384C192 381.239 194.239 379 197 379C199.761 379 202 381.239 202 384Z" fill="white" fill-opacity="0.1"/>
<path d="M202 407C202 409.761 199.761 412 197 412C194.239 412 192 409.761 192 407C192 404.239 194.239 402 197 402C199.761 402 202 404.239 202 407Z" fill="white" fill-opacity="0.1"/>
<path d="M202 430C202 432.761 199.761 435 197 435C194.239 435 192 432.761 192 430C192 427.239 194.239 425 197 425C199.761 425 202 427.239 202 430Z" fill="white" fill-opacity="0.1"/>
<path d="M202 453C202 455.761 199.761 458 197 458C194.239 458 192 455.761 192 453C192 450.239 194.239 448 197 448C199.761 448 202 450.239 202 453Z" fill="white" fill-opacity="0.1"/>
<path d="M225 85C225 87.7614 222.761 90 220 90C217.239 90 215 87.7614 215 85C215 82.2386 217.239 80 220 80C222.761 80 225 82.2386 225 85Z" fill="white" fill-opacity="0.1"/>
<path d="M225 108C225 110.761 222.761 113 220 113C217.239 113 215 110.761 215 108C215 105.239 217.239 103 220 103C222.761 103 225 105.239 225 108Z" fill="white" fill-opacity="0.1"/>
<path d="M225 131C225 133.761 222.761 136 220 136C217.239 136 215 133.761 215 131C215 128.239 217.239 126 220 126C222.761 126 225 128.239 225 131Z" fill="white" fill-opacity="0.1"/>
<path d="M225 154C225 156.761 222.761 159 220 159C217.239 159 215 156.761 215 154C215 151.239 217.239 149 220 149C222.761 149 225 151.239 225 154Z" fill="white" fill-opacity="0.1"/>
<path d="M225 177C225 179.761 222.761 182 220 182C217.239 182 215 179.761 215 177C215 174.239 217.239 172 220 172C222.761 172 225 174.239 225 177Z" fill="white" fill-opacity="0.1"/>
<path d="M225 200C225 202.761 222.761 205 220 205C217.239 205 215 202.761 215 200C215 197.239 217.239 195 220 195C222.761 195 225 197.239 225 200Z" fill="white" fill-opacity="0.1"/>
<path d="M225 223C225 225.761 222.761 228 220 228C217.239 228 215 225.761 215 223C215 220.239 217.239 218 220 218C222.761 218 225 220.239 225 223Z" fill="white" fill-opacity="0.1"/>
<path d="M225 246C225 248.761 222.761 251 220 251C217.239 251 215 248.761 215 246C215 243.239 217.239 241 220 241C222.761 241 225 243.239 225 246Z" fill="white" fill-opacity="0.1"/>
<path d="M225 269C225 271.761 222.761 274 220 274C217.239 274 215 271.761 215 269C215 266.239 217.239 264 220 264C222.761 264 225 266.239 225 269Z" fill="white" fill-opacity="0.1"/>
<path d="M225 292C225 294.761 222.761 297 220 297C217.239 297 215 294.761 215 292C215 289.239 217.239 287 220 287C222.761 287 225 289.239 225 292Z" fill="white" fill-opacity="0.1"/>
<path d="M225 315C225 317.761 222.761 320 220 320C217.239 320 215 317.761 215 315C215 312.239 217.239 310 220 310C222.761 310 225 312.239 225 315Z" fill="white" fill-opacity="0.1"/>
<path d="M225 338C225 340.761 222.761 343 220 343C217.239 343 215 340.761 215 338C215 335.239 217.239 333 220 333C222.761 333 225 335.239 225 338Z" fill="white" fill-opacity="0.1"/>
<path d="M225 361C225 363.761 222.761 366 220 366C217.239 366 215 363.761 215 361C215 358.239 217.239 356 220 356C222.761 356 225 358.239 225 361Z" fill="white" fill-opacity="0.1"/>
<path d="M225 384C225 386.761 222.761 389 220 389C217.239 389 215 386.761 215 384C215 381.239 217.239 379 220 379C222.761 379 225 381.239 225 384Z" fill="white" fill-opacity="0.1"/>
<path d="M225 407C225 409.761 222.761 412 220 412C217.239 412 215 409.761 215 407C215 404.239 217.239 402 220 402C222.761 402 225 404.239 225 407Z" fill="white" fill-opacity="0.1"/>
<path d="M225 430C225 432.761 222.761 435 220 435C217.239 435 215 432.761 215 430C215 427.239 217.239 425 220 425C222.761 425 225 427.239 225 430Z" fill="white" fill-opacity="0.1"/>
<path d="M225 453C225 455.761 222.761 458 220 458C217.239 458 215 455.761 215 453C215 450.239 217.239 448 220 448C222.761 448 225 450.239 225 453Z" fill="white" fill-opacity="0.1"/>
<path d="M248 85C248 87.7614 245.761 90 243 90C240.239 90 238 87.7614 238 85C238 82.2386 240.239 80 243 80C245.761 80 248 82.2386 248 85Z" fill="white" fill-opacity="0.1"/>
<path d="M248 108C248 110.761 245.761 113 243 113C240.239 113 238 110.761 238 108C238 105.239 240.239 103 243 103C245.761 103 248 105.239 248 108Z" fill="white" fill-opacity="0.1"/>
<path d="M248 131C248 133.761 245.761 136 243 136C240.239 136 238 133.761 238 131C238 128.239 240.239 126 243 126C245.761 126 248 128.239 248 131Z" fill="white" fill-opacity="0.1"/>
<path d="M248 154C248 156.761 245.761 159 243 159C240.239 159 238 156.761 238 154C238 151.239 240.239 149 243 149C245.761 149 248 151.239 248 154Z" fill="white" fill-opacity="0.1"/>
<path d="M248 177C248 179.761 245.761 182 243 182C240.239 182 238 179.761 238 177C238 174.239 240.239 172 243 172C245.761 172 248 174.239 248 177Z" fill="white" fill-opacity="0.1"/>
<path d="M248 200C248 202.761 245.761 205 243 205C240.239 205 238 202.761 238 200C238 197.239 240.239 195 243 195C245.761 195 248 197.239 248 200Z" fill="white" fill-opacity="0.1"/>
<path d="M248 223C248 225.761 245.761 228 243 228C240.239 228 238 225.761 238 223C238 220.239 240.239 218 243 218C245.761 218 248 220.239 248 223Z" fill="white" fill-opacity="0.1"/>
<path d="M248 246C248 248.761 245.761 251 243 251C240.239 251 238 248.761 238 246C238 243.239 240.239 241 243 241C245.761 241 248 243.239 248 246Z" fill="white" fill-opacity="0.1"/>
<path d="M248 269C248 271.761 245.761 274 243 274C240.239 274 238 271.761 238 269C238 266.239 240.239 264 243 264C245.761 264 248 266.239 248 269Z" fill="white" fill-opacity="0.1"/>
<path d="M248 292C248 294.761 245.761 297 243 297C240.239 297 238 294.761 238 292C238 289.239 240.239 287 243 287C245.761 287 248 289.239 248 292Z" fill="white" fill-opacity="0.1"/>
<path d="M248 315C248 317.761 245.761 320 243 320C240.239 320 238 317.761 238 315C238 312.239 240.239 310 243 310C245.761 310 248 312.239 248 315Z" fill="white" fill-opacity="0.1"/>
<path d="M248 338C248 340.761 245.761 343 243 343C240.239 343 238 340.761 238 338C238 335.239 240.239 333 243 333C245.761 333 248 335.239 248 338Z" fill="white" fill-opacity="0.1"/>
<path d="M248 361C248 363.761 245.761 366 243 366C240.239 366 238 363.761 238 361C238 358.239 240.239 356 243 356C245.761 356 248 358.239 248 361Z" fill="white" fill-opacity="0.1"/>
<path d="M248 384C248 386.761 245.761 389 243 389C240.239 389 238 386.761 238 384C238 381.239 240.239 379 243 379C245.761 379 248 381.239 248 384Z" fill="white" fill-opacity="0.1"/>
<path d="M248 407C248 409.761 245.761 412 243 412C240.239 412 238 409.761 238 407C238 404.239 240.239 402 243 402C245.761 402 248 404.239 248 407Z" fill="white" fill-opacity="0.1"/>
<path d="M248 430C248 432.761 245.761 435 243 435C240.239 435 238 432.761 238 430C238 427.239 240.239 425 243 425C245.761 425 248 427.239 248 430Z" fill="white" fill-opacity="0.1"/>
<path d="M248 453C248 455.761 245.761 458 243 458C240.239 458 238 455.761 238 453C238 450.239 240.239 448 243 448C245.761 448 248 450.239 248 453Z" fill="white" fill-opacity="0.1"/>
<path d="M271 85C271 87.7614 268.761 90 266 90C263.239 90 261 87.7614 261 85C261 82.2386 263.239 80 266 80C268.761 80 271 82.2386 271 85Z" fill="white" fill-opacity="0.1"/>
<path d="M271 108C271 110.761 268.761 113 266 113C263.239 113 261 110.761 261 108C261 105.239 263.239 103 266 103C268.761 103 271 105.239 271 108Z" fill="white" fill-opacity="0.1"/>
<path d="M271 131C271 133.761 268.761 136 266 136C263.239 136 261 133.761 261 131C261 128.239 263.239 126 266 126C268.761 126 271 128.239 271 131Z" fill="white" fill-opacity="0.1"/>
<path d="M271 154C271 156.761 268.761 159 266 159C263.239 159 261 156.761 261 154C261 151.239 263.239 149 266 149C268.761 149 271 151.239 271 154Z" fill="white" fill-opacity="0.1"/>
<path d="M271 177C271 179.761 268.761 182 266 182C263.239 182 261 179.761 261 177C261 174.239 263.239 172 266 172C268.761 172 271 174.239 271 177Z" fill="white" fill-opacity="0.1"/>
<path d="M271 200C271 202.761 268.761 205 266 205C263.239 205 261 202.761 261 200C261 197.239 263.239 195 266 195C268.761 195 271 197.239 271 200Z" fill="white" fill-opacity="0.1"/>
<path d="M271 223C271 225.761 268.761 228 266 228C263.239 228 261 225.761 261 223C261 220.239 263.239 218 266 218C268.761 218 271 220.239 271 223Z" fill="white" fill-opacity="0.1"/>
<path d="M271 246C271 248.761 268.761 251 266 251C263.239 251 261 248.761 261 246C261 243.239 263.239 241 266 241C268.761 241 271 243.239 271 246Z" fill="white" fill-opacity="0.1"/>
<path d="M271 269C271 271.761 268.761 274 266 274C263.239 274 261 271.761 261 269C261 266.239 263.239 264 266 264C268.761 264 271 266.239 271 269Z" fill="white" fill-opacity="0.1"/>
<path d="M271 292C271 294.761 268.761 297 266 297C263.239 297 261 294.761 261 292C261 289.239 263.239 287 266 287C268.761 287 271 289.239 271 292Z" fill="white" fill-opacity="0.1"/>
<path d="M271 315C271 317.761 268.761 320 266 320C263.239 320 261 317.761 261 315C261 312.239 263.239 310 266 310C268.761 310 271 312.239 271 315Z" fill="white" fill-opacity="0.1"/>
<path d="M271 338C271 340.761 268.761 343 266 343C263.239 343 261 340.761 261 338C261 335.239 263.239 333 266 333C268.761 333 271 335.239 271 338Z" fill="white" fill-opacity="0.1"/>
<path d="M271 361C271 363.761 268.761 366 266 366C263.239 366 261 363.761 261 361C261 358.239 263.239 356 266 356C268.761 356 271 358.239 271 361Z" fill="white" fill-opacity="0.1"/>
<path d="M271 384C271 386.761 268.761 389 266 389C263.239 389 261 386.761 261 384C261 381.239 263.239 379 266 379C268.761 379 271 381.239 271 384Z" fill="white" fill-opacity="0.1"/>
<path d="M271 407C271 409.761 268.761 412 266 412C263.239 412 261 409.761 261 407C261 404.239 263.239 402 266 402C268.761 402 271 404.239 271 407Z" fill="white" fill-opacity="0.1"/>
<path d="M271 430C271 432.761 268.761 435 266 435C263.239 435 261 432.761 261 430C261 427.239 263.239 425 266 425C268.761 425 271 427.239 271 430Z" fill="white" fill-opacity="0.1"/>
<path d="M271 453C271 455.761 268.761 458 266 458C263.239 458 261 455.761 261 453C261 450.239 263.239 448 266 448C268.761 448 271 450.239 271 453Z" fill="white" fill-opacity="0.1"/>
</svg>
