<svg width="37" height="37" viewBox="0 0 37 37" fill="none" xmlns="http://www.w3.org/2000/svg">
<path d="M21.7312 18.5001L36.1687 4.08548C36.6002 3.65395 36.8426 3.06867 36.8426 2.45839C36.8426 1.84812 36.6002 1.26284 36.1687 0.831309C35.7372 0.399779 35.1519 0.157349 34.5416 0.157349C33.9313 0.157349 33.3461 0.399779 32.9145 0.831309L18.4999 15.2688L4.08536 0.831309C3.65383 0.399779 3.06855 0.157349 2.45827 0.157349C1.848 0.157349 1.26272 0.399779 0.831191 0.831309C0.399662 1.26284 0.157232 1.84812 0.157232 2.45839C0.157232 3.06867 0.399662 3.65395 0.831191 4.08548L15.2687 18.5001L0.831191 32.9146C0.616397 33.1277 0.445911 33.3811 0.329566 33.6604C0.213221 33.9397 0.15332 34.2392 0.15332 34.5417C0.15332 34.8443 0.213221 35.1438 0.329566 35.423C0.445911 35.7023 0.616397 35.9558 0.831191 36.1688C1.04423 36.3836 1.29769 36.5541 1.57695 36.6704C1.85621 36.7868 2.15575 36.8467 2.45827 36.8467C2.7608 36.8467 3.06034 36.7868 3.3396 36.6704C3.61886 36.5541 3.87232 36.3836 4.08536 36.1688L18.4999 21.7313L32.9145 36.1688C33.1276 36.3836 33.381 36.5541 33.6603 36.6704C33.9395 36.7868 34.2391 36.8467 34.5416 36.8467C34.8441 36.8467 35.1437 36.7868 35.4229 36.6704C35.7022 36.5541 35.9556 36.3836 36.1687 36.1688C36.3835 35.9558 36.554 35.7023 36.6703 35.423C36.7867 35.1438 36.8466 34.8443 36.8466 34.5417C36.8466 34.2392 36.7867 33.9397 36.6703 33.6604C36.554 33.3811 36.3835 33.1277 36.1687 32.9146L21.7312 18.5001Z" fill="white"/>
</svg>
