<svg width="30" height="24" viewBox="0 0 30 24" fill="none" xmlns="http://www.w3.org/2000/svg">
<path d="M24.9166 0.666687H5.08325C3.95608 0.666687 2.87508 1.11445 2.07805 1.91148C1.28102 2.70851 0.833252 3.78952 0.833252 4.91669V19.0834C0.833252 20.2105 1.28102 21.2915 2.07805 22.0886C2.87508 22.8856 3.95608 23.3334 5.08325 23.3334H24.9166C26.0438 23.3334 27.1248 22.8856 27.9218 22.0886C28.7188 21.2915 29.1666 20.2105 29.1666 19.0834V4.91669C29.1666 3.78952 28.7188 2.70851 27.9218 1.91148C27.1248 1.11445 26.0438 0.666687 24.9166 0.666687ZM24.3358 3.50002L16.0058 11.83C15.8741 11.9628 15.7174 12.0682 15.5447 12.1401C15.3721 12.212 15.1869 12.2491 14.9999 12.2491C14.8129 12.2491 14.6277 12.212 14.4551 12.1401C14.2825 12.0682 14.1258 11.9628 13.9941 11.83L5.66408 3.50002H24.3358ZM26.3333 19.0834C26.3333 19.4591 26.184 19.8194 25.9183 20.0851C25.6526 20.3508 25.2923 20.5 24.9166 20.5H5.08325C4.70753 20.5 4.34719 20.3508 4.08152 20.0851C3.81584 19.8194 3.66659 19.4591 3.66659 19.0834V5.49752L11.9966 13.8275C12.7935 14.6234 13.8737 15.0704 14.9999 15.0704C16.1262 15.0704 17.2064 14.6234 18.0033 13.8275L26.3333 5.49752V19.0834Z" fill="#FF6B00"/>
</svg>
