<svg width="29" height="29" viewBox="0 0 29 29" fill="none" xmlns="http://www.w3.org/2000/svg">
<path d="M14.5001 11.5033C13.9074 11.5033 13.328 11.6791 12.8352 12.0084C12.3424 12.3376 11.9583 12.8057 11.7315 13.3532C11.5047 13.9008 11.4454 14.5033 11.561 15.0846C11.6766 15.6659 11.962 16.1999 12.3811 16.619C12.8002 17.0381 13.3342 17.3235 13.9155 17.4391C14.4968 17.5547 15.0993 17.4954 15.6469 17.2686C16.1944 17.0418 16.6624 16.6577 16.9917 16.1649C17.321 15.6721 17.4967 15.0927 17.4967 14.5C17.4967 14.1065 17.4192 13.7168 17.2686 13.3532C17.118 12.9897 16.8973 12.6593 16.619 12.381C16.3408 12.1028 16.0104 11.882 15.6469 11.7314C15.2833 11.5808 14.8936 11.5033 14.5001 11.5033ZM26.4988 8.54292C26.4925 7.6098 26.3206 6.6852 25.9913 5.81209C25.7488 5.17319 25.3735 4.59299 24.8903 4.10977C24.4071 3.62655 23.8269 3.25129 23.188 3.00876C22.3149 2.67944 21.3903 2.50761 20.4572 2.50125C18.8984 2.41667 18.4392 2.41667 14.5001 2.41667C10.5609 2.41667 10.1017 2.41667 8.543 2.50125C7.60987 2.50761 6.68527 2.67944 5.81216 3.00876C5.17327 3.25129 4.59307 3.62655 4.10985 4.10977C3.62662 4.59299 3.25137 5.17319 3.00883 5.81209C2.67952 6.6852 2.50769 7.6098 2.50133 8.54292C2.41675 10.1017 2.41675 10.5608 2.41675 14.5C2.41675 18.4392 2.41675 18.8983 2.50133 20.4571C2.51434 21.3935 2.68593 22.3209 3.00883 23.2C3.25029 23.836 3.62524 24.4128 4.10841 24.8917C4.58957 25.3778 5.17101 25.753 5.81216 25.9913C6.68527 26.3206 7.60987 26.4924 8.543 26.4988C10.1017 26.5833 10.5609 26.5833 14.5001 26.5833C18.4392 26.5833 18.8984 26.5833 20.4572 26.4988C21.3903 26.4924 22.3149 26.3206 23.188 25.9913C23.8292 25.753 24.4106 25.3778 24.8917 24.8917C25.3749 24.4128 25.7499 23.836 25.9913 23.2C26.3203 22.3226 26.4921 21.3941 26.4988 20.4571C26.5834 18.8983 26.5834 18.4392 26.5834 14.5C26.5834 10.5608 26.5834 10.1017 26.4988 8.54292ZM23.4297 18.2096C23.3909 18.9553 23.2317 19.6897 22.9584 20.3846C22.7238 20.9642 22.3751 21.4907 21.933 21.9329C21.4908 22.375 20.9643 22.7238 20.3847 22.9583C19.6832 23.2164 18.9447 23.3593 18.1976 23.3813C17.243 23.3813 16.9892 23.3813 14.5001 23.3813C12.0109 23.3813 11.7572 23.3813 10.8026 23.3813C10.0555 23.3593 9.31692 23.2164 8.6155 22.9583C8.01629 22.7357 7.47517 22.3804 7.03258 21.9192C6.59476 21.4857 6.25664 20.962 6.04175 20.3846C5.78263 19.6839 5.64373 18.9445 5.63091 18.1975C5.63091 17.2429 5.63091 16.9892 5.63091 14.5C5.63091 12.0108 5.63091 11.7571 5.63091 10.8025C5.64373 10.0555 5.78263 9.31611 6.04175 8.61542C6.26442 8.01621 6.61966 7.47509 7.08091 7.03251C7.51632 6.59705 8.03944 6.25928 8.6155 6.04167C9.31692 5.78358 10.0555 5.64076 10.8026 5.61876C11.7572 5.61876 12.0109 5.61876 14.5001 5.61876C16.9892 5.61876 17.243 5.61876 18.1976 5.61876C18.9447 5.64076 19.6832 5.78358 20.3847 6.04167C20.9839 6.26434 21.525 6.61959 21.9676 7.08084C22.4054 7.51433 22.7435 8.038 22.9584 8.61542C23.2165 9.31684 23.3593 10.0554 23.3813 10.8025C23.3813 11.7571 23.3813 12.0108 23.3813 14.5C23.3813 16.9892 23.4659 17.2429 23.4297 18.1975V18.2096ZM21.4963 9.21959C21.3525 8.82928 21.1256 8.47482 20.8315 8.18068C20.5373 7.88654 20.1829 7.65971 19.7926 7.51584C19.2567 7.33007 18.6922 7.24009 18.1251 7.25C17.1826 7.25 16.9167 7.25 14.5001 7.25C12.0834 7.25 11.8176 7.25 10.8751 7.25C10.3051 7.25558 9.74054 7.36194 9.20758 7.56417C8.82324 7.70151 8.47254 7.91907 8.17879 8.20241C7.88503 8.48575 7.65495 8.82838 7.50383 9.2075C7.32835 9.74566 7.24262 10.309 7.25008 10.875C7.25008 11.8175 7.25008 12.0833 7.25008 14.5C7.25008 16.9167 7.25008 17.1825 7.25008 18.125C7.26206 18.6944 7.36822 19.2578 7.56425 19.7925C7.70812 20.1828 7.93495 20.5373 8.22909 20.8314C8.52323 21.1256 8.87769 21.3524 9.268 21.4963C9.78355 21.6859 10.3261 21.7919 10.8751 21.8104C11.8176 21.8104 12.0834 21.8104 14.5001 21.8104C16.9167 21.8104 17.1826 21.8104 18.1251 21.8104C18.6951 21.8048 19.2596 21.6985 19.7926 21.4963C20.1829 21.3524 20.5373 21.1256 20.8315 20.8314C21.1256 20.5373 21.3525 20.1828 21.4963 19.7925C21.6986 19.2595 21.8049 18.695 21.8105 18.125C21.8105 17.1825 21.8105 16.9167 21.8105 14.5C21.8105 12.0833 21.8105 11.8175 21.8105 10.875C21.8108 10.3044 21.7043 9.73884 21.4963 9.2075V9.21959ZM14.5001 19.1158C13.8945 19.1158 13.2948 18.9964 12.7355 18.7642C12.1762 18.5321 11.6681 18.1919 11.2405 17.7632C10.8128 17.3344 10.4739 16.8254 10.2433 16.2655C10.0126 15.7055 9.89474 15.1056 9.89633 14.5C9.89633 13.5866 10.1674 12.6937 10.6751 11.9343C11.1828 11.175 11.9044 10.5834 12.7486 10.2344C13.5927 9.88538 14.5214 9.79468 15.4171 9.97377C16.3128 10.1529 17.1353 10.5937 17.7803 11.2404C18.4254 11.8872 18.864 12.7108 19.0408 13.6069C19.2175 14.5031 19.1244 15.4316 18.7732 16.2748C18.4219 17.118 17.8284 17.8381 17.0678 18.3438C16.3071 18.8495 15.4135 19.1182 14.5001 19.1158ZM19.3334 10.7904C19.0663 10.7621 18.8191 10.636 18.6394 10.4363C18.4598 10.2367 18.3604 9.97757 18.3604 9.70896C18.3604 9.44036 18.4598 9.18126 18.6394 8.98158C18.8191 8.7819 19.0663 8.65578 19.3334 8.6275C19.6005 8.65578 19.8477 8.7819 20.0274 8.98158C20.207 9.18126 20.3064 9.44036 20.3064 9.70896C20.3064 9.97757 20.207 10.2367 20.0274 10.4363C19.8477 10.636 19.6005 10.7621 19.3334 10.7904Z" fill="white"/>
</svg>
