<svg width="29" height="29" viewBox="0 0 29 29" fill="none" xmlns="http://www.w3.org/2000/svg">
<path d="M18.2132 2.41666H10.7996C4.02783 2.41666 2.41675 4.02774 2.41675 10.7869V18.2005C2.41675 24.9722 4.0153 26.5833 10.7869 26.5833H18.2006C24.9723 26.5833 26.5834 24.9848 26.5834 18.2131V10.7995C26.5834 4.02774 24.9849 2.41666 18.2132 2.41666ZM21.9263 19.6605H20.1641C19.4971 19.6605 19.2957 19.1193 18.0999 17.9236C17.0552 16.9167 16.6147 16.7908 16.3503 16.7908C15.9854 16.7908 15.8846 16.8914 15.8846 17.3949V18.9809C15.8846 19.4088 15.7462 19.6605 14.626 19.6605C13.5389 19.5875 12.4848 19.2573 11.5504 18.6971C10.616 18.1369 9.82801 17.3627 9.25138 16.4383C7.88247 14.7345 6.93 12.7347 6.46973 10.5981C6.46973 10.3337 6.57039 10.0946 7.07389 10.0946H8.83602C9.28914 10.0946 9.4528 10.296 9.62899 10.7617C10.4849 13.279 11.945 15.4691 12.5365 15.4691C12.7631 15.4691 12.8638 15.3685 12.8638 14.8021V12.2091C12.7882 11.026 12.1589 10.9253 12.1589 10.4974C12.1672 10.3845 12.2192 10.2793 12.3038 10.2041C12.3884 10.1288 12.499 10.0896 12.6121 10.0946H15.3812C15.7588 10.0946 15.8846 10.2834 15.8846 10.7365V14.2357C15.8846 14.6133 16.0483 14.7391 16.1615 14.7391C16.3881 14.7391 16.5643 14.6133 16.9797 14.1979C17.8722 13.1094 18.6015 11.8967 19.1446 10.5981C19.2 10.4418 19.3051 10.308 19.4438 10.217C19.5824 10.1261 19.747 10.0831 19.9124 10.0946H21.6746C22.2032 10.0946 22.3165 10.3589 22.2032 10.7365C21.562 12.1724 20.7687 13.5354 19.8369 14.8021C19.6481 15.0915 19.5726 15.2426 19.8369 15.5824C20.0131 15.8467 20.6299 16.3628 21.0452 16.8537C21.6494 17.4563 22.1511 18.1536 22.5304 18.918C22.6815 19.4088 22.4298 19.6605 21.9263 19.6605Z" fill="white"/>
</svg>
