<svg width="24" height="18" viewBox="0 0 24 18" fill="none" xmlns="http://www.w3.org/2000/svg">
<path d="M23.1832 1.01692C23.0282 0.860709 22.8439 0.736718 22.6408 0.652104C22.4377 0.567489 22.2199 0.523926 21.9998 0.523926C21.7798 0.523926 21.562 0.567489 21.3589 0.652104C21.1558 0.736718 20.9714 0.860709 20.8165 1.01692L8.39984 13.4503L3.18317 8.21692C3.0223 8.06152 2.8324 7.93933 2.62431 7.85733C2.41621 7.77532 2.19401 7.7351 1.97037 7.73897C1.74674 7.74284 1.52606 7.79072 1.32092 7.87988C1.11579 7.96903 0.930232 8.09772 0.774835 8.25859C0.619437 8.41946 0.497247 8.60936 0.415241 8.81745C0.333234 9.02554 0.293017 9.24775 0.296886 9.47139C0.300755 9.69502 0.348635 9.9157 0.43779 10.1208C0.526946 10.326 0.655632 10.5115 0.816502 10.6669L7.2165 17.0669C7.37144 17.2231 7.55578 17.3471 7.75887 17.4317C7.96197 17.5164 8.17982 17.5599 8.39984 17.5599C8.61986 17.5599 8.8377 17.5164 9.0408 17.4317C9.2439 17.3471 9.42823 17.2231 9.58317 17.0669L23.1832 3.46692C23.3523 3.31085 23.4874 3.12143 23.5797 2.9106C23.672 2.69977 23.7197 2.47209 23.7197 2.24192C23.7197 2.01175 23.672 1.78408 23.5797 1.57325C23.4874 1.36241 23.3523 1.17299 23.1832 1.01692Z" fill="#0F090B"/>
</svg>
