<svg width="60" height="904" viewBox="0 0 60 904" fill="none" xmlns="http://www.w3.org/2000/svg">
<path d="M28 2C28 0.895429 28.8954 0 30 0V0C31.1046 0 32 0.895431 32 2V132H28V2Z" fill="#FF6B00"/>
<path d="M28 190H32V422C32 422.552 31.5523 423 31 423H29C28.4477 423 28 422.552 28 422V190Z" fill="#FF6B00"/>
<path d="M28 481H32V713C32 713.552 31.5523 714 31 714H29C28.4477 714 28 713.552 28 713V481Z" fill="#FF6B00"/>
<path d="M28 772H32V902C32 903.105 31.1046 904 30 904V904C28.8954 904 28 903.105 28 902V772Z" fill="#FF6B00"/>
<circle cx="30" cy="743" r="29.5" stroke="#FF6B00"/>
<path d="M27.51 750.42C26.07 752.4 24.05 753.39 21.45 753.39C18.85 753.39 16.82 752.4 15.36 750.42C13.92 748.44 13.2 745.8 13.2 742.5C13.2 739.2 13.92 736.56 15.36 734.58C16.82 732.6 18.85 731.61 21.45 731.61C24.05 731.61 26.07 732.6 27.51 734.58C28.97 736.56 29.7 739.2 29.7 742.5C29.7 745.8 28.97 748.44 27.51 750.42ZM21.45 750.03C23.01 750.03 24.2 749.38 25.02 748.08C25.84 746.78 26.25 744.92 26.25 742.5C26.25 740.08 25.84 738.22 25.02 736.92C24.2 735.62 23.01 734.97 21.45 734.97C19.91 734.97 18.72 735.62 17.88 736.92C17.06 738.22 16.65 740.08 16.65 742.5C16.65 744.92 17.06 746.78 17.88 748.08C18.72 749.38 19.91 750.03 21.45 750.03ZM40.1548 740.58C41.6748 740.94 42.9048 741.65 43.8448 742.71C44.8048 743.75 45.2848 745.06 45.2848 746.64C45.2848 748.74 44.5748 750.39 43.1548 751.59C41.7348 752.79 39.9948 753.39 37.9348 753.39C36.3348 753.39 34.8948 753.02 33.6148 752.28C32.3548 751.54 31.4448 750.46 30.8848 749.04L33.8248 747.33C34.4448 749.13 35.8148 750.03 37.9348 750.03C39.1348 750.03 40.0848 749.73 40.7848 749.13C41.4848 748.51 41.8348 747.68 41.8348 746.64C41.8348 745.6 41.4848 744.78 40.7848 744.18C40.0848 743.58 39.1348 743.28 37.9348 743.28H37.1548L35.7748 741.21L40.3048 735.24H31.5148V732H44.4148V734.94L40.1548 740.58Z" fill="#FF6B00"/>
<circle cx="30" cy="452" r="29.5" stroke="#FF6B00"/>
<path d="M27.51 459.42C26.07 461.4 24.05 462.39 21.45 462.39C18.85 462.39 16.82 461.4 15.36 459.42C13.92 457.44 13.2 454.8 13.2 451.5C13.2 448.2 13.92 445.56 15.36 443.58C16.82 441.6 18.85 440.61 21.45 440.61C24.05 440.61 26.07 441.6 27.51 443.58C28.97 445.56 29.7 448.2 29.7 451.5C29.7 454.8 28.97 457.44 27.51 459.42ZM21.45 459.03C23.01 459.03 24.2 458.38 25.02 457.08C25.84 455.78 26.25 453.92 26.25 451.5C26.25 449.08 25.84 447.22 25.02 445.92C24.2 444.62 23.01 443.97 21.45 443.97C19.91 443.97 18.72 444.62 17.88 445.92C17.06 447.22 16.65 449.08 16.65 451.5C16.65 453.92 17.06 455.78 17.88 457.08C18.72 458.38 19.91 459.03 21.45 459.03ZM31.387 462V459.3L38.707 451.83C40.487 450.05 41.377 448.51 41.377 447.21C41.377 446.19 41.067 445.4 40.447 444.84C39.847 444.26 39.077 443.97 38.137 443.97C36.377 443.97 35.077 444.84 34.237 446.58L31.327 444.87C31.987 443.47 32.917 442.41 34.117 441.69C35.317 440.97 36.647 440.61 38.107 440.61C39.947 440.61 41.527 441.19 42.847 442.35C44.167 443.51 44.827 445.09 44.827 447.09C44.827 449.23 43.637 451.51 41.257 453.93L36.517 458.67H45.217V462H31.387Z" fill="#FF6B00"/>
<circle cx="30" cy="161" r="30" fill="#FF6B00"/>
<path d="M30.51 168.42C29.07 170.4 27.05 171.39 24.45 171.39C21.85 171.39 19.82 170.4 18.36 168.42C16.92 166.44 16.2 163.8 16.2 160.5C16.2 157.2 16.92 154.56 18.36 152.58C19.82 150.6 21.85 149.61 24.45 149.61C27.05 149.61 29.07 150.6 30.51 152.58C31.97 154.56 32.7 157.2 32.7 160.5C32.7 163.8 31.97 166.44 30.51 168.42ZM24.45 168.03C26.01 168.03 27.2 167.38 28.02 166.08C28.84 164.78 29.25 162.92 29.25 160.5C29.25 158.08 28.84 156.22 28.02 154.92C27.2 153.62 26.01 152.97 24.45 152.97C22.91 152.97 21.72 153.62 20.88 154.92C20.06 156.22 19.65 158.08 19.65 160.5C19.65 162.92 20.06 164.78 20.88 166.08C21.72 167.38 22.91 168.03 24.45 168.03ZM39.2205 150H42.2205V171H38.7705V153.69L34.5405 154.89L33.7005 151.95L39.2205 150Z" fill="white"/>
</svg>
