<svg width="130" height="130" viewBox="0 0 130 130" fill="none" xmlns="http://www.w3.org/2000/svg">
<path d="M102.917 35.2085H95.9832L94.2499 29.7918C93.1262 26.6135 91.0419 23.8633 88.2856 21.9223C85.5294 19.9813 82.2377 18.9455 78.8666 18.9585H51.1332C47.7291 18.9649 44.413 20.0401 41.6528 22.0325C38.8927 24.0249 36.8279 26.8337 35.7499 30.0627L34.0166 35.4793H27.0833C22.7735 35.4793 18.6402 37.1914 15.5928 40.2388C12.5453 43.2863 10.8333 47.4196 10.8333 51.7293V95.0627C10.8333 99.3724 12.5453 103.506 15.5928 106.553C18.6402 109.601 22.7735 111.313 27.0833 111.313H102.917C107.226 111.313 111.36 109.601 114.407 106.553C117.455 103.506 119.167 99.3724 119.167 95.0627V51.7293C119.203 49.5727 118.809 47.4304 118.008 45.4275C117.208 43.4246 116.016 41.6011 114.504 40.0634C112.991 38.5256 111.188 37.3044 109.198 36.4708C107.209 35.6373 105.074 35.2082 102.917 35.2085ZM108.333 94.7918C108.333 96.2284 107.763 97.6062 106.747 98.622C105.731 99.6378 104.353 100.208 102.917 100.208H27.0833C25.6467 100.208 24.2689 99.6378 23.2531 98.622C22.2373 97.6062 21.6666 96.2284 21.6666 94.7918V51.4585C21.6666 50.0219 22.2373 48.6442 23.2531 47.6283C24.2689 46.6125 25.6467 46.0418 27.0833 46.0418H37.9166C39.0978 46.1035 40.2667 45.7768 41.2448 45.1117C42.2229 44.4466 42.9564 43.4796 43.3333 42.3585L46.2583 33.4752C46.6216 32.3993 47.3139 31.4648 48.2373 30.8039C49.1607 30.1429 50.2685 29.7889 51.4041 29.7918H79.1374C80.273 29.7889 81.3808 30.1429 82.3042 30.8039C83.2276 31.4648 83.9199 32.3993 84.2832 33.4752L87.2083 42.3585C87.5558 43.3917 88.2071 44.296 89.0768 44.9531C89.9466 45.6103 90.9944 45.9897 92.0833 46.0418H102.917C104.353 46.0418 105.731 46.6125 106.747 47.6283C107.763 48.6442 108.333 50.0219 108.333 51.4585V94.7918ZM64.9999 46.0418C60.7147 46.0418 56.5256 47.3126 52.9626 49.6933C49.3995 52.0741 46.6224 55.458 44.9825 59.417C43.3426 63.3761 42.9136 67.7325 43.7496 71.9354C44.5856 76.1384 46.6491 79.999 49.6793 83.0291C52.7094 86.0593 56.57 88.1228 60.773 88.9588C64.9759 89.7949 69.3323 89.3658 73.2914 87.7259C77.2505 86.086 80.6343 83.3089 83.0151 79.7458C85.3959 76.1828 86.6666 71.9938 86.6666 67.7085C86.6666 61.9621 84.3839 56.4511 80.3206 52.3878C76.2573 48.3246 70.7463 46.0418 64.9999 46.0418ZM64.9999 78.5418C62.8573 78.5418 60.7628 77.9065 58.9812 76.7161C57.1997 75.5257 55.8112 73.8338 54.9912 71.8542C54.1713 69.8747 53.9567 67.6965 54.3747 65.595C54.7927 63.4936 55.8245 61.5632 57.3396 60.0482C58.8547 58.5331 60.785 57.5013 62.8864 57.0833C64.9879 56.6653 67.1661 56.8798 69.1457 57.6998C71.1252 58.5197 72.8171 59.9083 74.0075 61.6898C75.1979 63.4714 75.8333 65.5659 75.8333 67.7085C75.8333 70.5817 74.6919 73.3372 72.6602 75.3688C70.6286 77.4005 67.8731 78.5418 64.9999 78.5418Z" fill="white" fill-opacity="0.72"/>
</svg>
