<svg width="21" height="25" viewBox="0 0 21 25" fill="none" xmlns="http://www.w3.org/2000/svg">
<path d="M20.4938 9.63627C20.3241 7.87079 19.7002 6.17933 18.6827 4.72659C17.6652 3.27385 16.2889 2.10935 14.6877 1.34649C13.0866 0.583622 11.3151 0.248388 9.54594 0.37343C7.77674 0.498472 6.07007 1.07953 4.59211 2.06002C3.32239 2.90905 2.25647 4.02875 1.47092 5.3387C0.685371 6.64864 0.199694 8.11631 0.0487796 9.63627C-0.0992626 11.1463 0.0906773 12.6703 0.604819 14.0978C1.11896 15.5252 1.94441 16.8204 3.02128 17.8892L9.42545 24.3054C9.53778 24.4187 9.67142 24.5086 9.81867 24.5699C9.96591 24.6313 10.1238 24.6629 10.2834 24.6629C10.4429 24.6629 10.6008 24.6313 10.7481 24.5699C10.8953 24.5086 11.029 24.4187 11.1413 24.3054L17.5213 17.8892C18.5982 16.8204 19.4236 15.5252 19.9377 14.0978C20.4519 12.6703 20.6418 11.1463 20.4938 9.63627V9.63627ZM15.8296 16.1854L10.2713 21.7438L4.71295 16.1854C3.8938 15.3662 3.26633 14.3757 2.87564 13.2851C2.48494 12.1945 2.34073 11.0309 2.45336 9.87793C2.56673 8.70718 2.93883 7.57625 3.54276 6.56691C4.14669 5.55757 4.96737 4.69504 5.94545 4.04168C7.22742 3.19009 8.73223 2.73583 10.2713 2.73583C11.8103 2.73583 13.3151 3.19009 14.5971 4.04168C15.5722 4.69251 16.3911 5.55123 16.9949 6.55615C17.5987 7.56107 17.9724 8.68724 18.0892 9.85377C18.2055 11.0107 18.0631 12.1789 17.6723 13.274C17.2815 14.3691 16.6521 15.3636 15.8296 16.1854V16.1854ZM10.2713 5.25002C9.19584 5.25002 8.14456 5.56892 7.25037 6.1664C6.35618 6.76388 5.65924 7.6131 5.24769 8.60668C4.83613 9.60025 4.72845 10.6935 4.93826 11.7483C5.14807 12.8031 5.66594 13.772 6.42639 14.5324C7.18684 15.2929 8.15571 15.8107 9.21048 16.0205C10.2652 16.2303 11.3585 16.1227 12.3521 15.7111C13.3457 15.2996 14.1949 14.6026 14.7924 13.7084C15.3899 12.8142 15.7088 11.763 15.7088 10.6875C15.7056 9.24638 15.1317 7.86519 14.1126 6.84615C13.0936 5.82711 11.7124 5.25321 10.2713 5.25002V5.25002ZM10.2713 13.7084C9.67382 13.7084 9.08977 13.5312 8.593 13.1992C8.09622 12.8673 7.70903 12.3955 7.48039 11.8435C7.25175 11.2916 7.19193 10.6842 7.30849 10.0982C7.42505 9.5122 7.71276 8.97394 8.13523 8.55147C8.5577 8.12899 9.09596 7.84129 9.68194 7.72473C10.2679 7.60817 10.8753 7.66799 11.4273 7.89663C11.9793 8.12527 12.4511 8.51246 12.783 9.00923C13.1149 9.50601 13.2921 10.0901 13.2921 10.6875C13.2921 11.4887 12.9738 12.2571 12.4073 12.8236C11.8408 13.3901 11.0725 13.7084 10.2713 13.7084V13.7084Z" fill="#FF6B00"/>
</svg>
