<svg width="25" height="25" viewBox="0 0 25 25" fill="none" xmlns="http://www.w3.org/2000/svg">
<path d="M12.5001 9.50332C11.9074 9.50332 11.328 9.67907 10.8352 10.0084C10.3424 10.3376 9.95833 10.8056 9.73152 11.3532C9.50471 11.9008 9.44537 12.5033 9.56099 13.0846C9.67662 13.6659 9.96203 14.1999 10.3811 14.619C10.8002 15.038 11.3342 15.3234 11.9155 15.4391C12.4968 15.5547 13.0993 15.4954 13.6469 15.2685C14.1944 15.0417 14.6624 14.6576 14.9917 14.1648C15.321 13.672 15.4967 13.0927 15.4967 12.5C15.4967 12.1065 15.4192 11.7168 15.2686 11.3532C15.118 10.9896 14.8973 10.6593 14.619 10.381C14.3408 10.1028 14.0104 9.88203 13.6469 9.73143C13.2833 9.58083 12.8936 9.50332 12.5001 9.50332ZM24.4988 6.54291C24.4925 5.60978 24.3206 4.68518 23.9913 3.81207C23.7488 3.17318 23.3735 2.59298 22.8903 2.10976C22.4071 1.62653 21.8269 1.25127 21.188 1.00874C20.3149 0.679425 19.3903 0.507597 18.4572 0.50124C16.8984 0.416656 16.4392 0.416656 12.5001 0.416656C8.56091 0.416656 8.10175 0.416656 6.543 0.50124C5.60987 0.507597 4.68527 0.679425 3.81216 1.00874C3.17327 1.25127 2.59307 1.62653 2.10985 2.10976C1.62662 2.59298 1.25137 3.17318 1.00883 3.81207C0.679517 4.68518 0.507688 5.60978 0.501331 6.54291C0.416748 8.10166 0.416748 8.56082 0.416748 12.5C0.416748 16.4392 0.416748 16.8983 0.501331 18.4571C0.514338 19.3935 0.685934 20.3209 1.00883 21.2C1.25029 21.836 1.62524 22.4128 2.10841 22.8917C2.58957 23.3778 3.17101 23.753 3.81216 23.9912C4.68527 24.3206 5.60987 24.4924 6.543 24.4987C8.10175 24.5833 8.56091 24.5833 12.5001 24.5833C16.4392 24.5833 16.8984 24.5833 18.4572 24.4987C19.3903 24.4924 20.3149 24.3206 21.188 23.9912C21.8292 23.753 22.4106 23.3778 22.8917 22.8917C23.3749 22.4128 23.7499 21.836 23.9913 21.2C24.3203 20.3226 24.4921 19.3941 24.4988 18.4571C24.5834 16.8983 24.5834 16.4392 24.5834 12.5C24.5834 8.56082 24.5834 8.10166 24.4988 6.54291ZM21.4297 16.2096C21.3909 16.9552 21.2317 17.6897 20.9584 18.3846C20.7238 18.9642 20.3751 19.4907 19.933 19.9329C19.4908 20.375 18.9643 20.7237 18.3847 20.9583C17.6832 21.2164 16.9447 21.3592 16.1976 21.3812C15.243 21.3812 14.9892 21.3812 12.5001 21.3812C10.0109 21.3812 9.75716 21.3812 8.80258 21.3812C8.0555 21.3592 7.31692 21.2164 6.6155 20.9583C6.01629 20.7356 5.47517 20.3804 5.03258 19.9192C4.59476 19.4857 4.25664 18.962 4.04175 18.3846C3.78263 17.6839 3.64373 16.9445 3.63091 16.1975C3.63091 15.2429 3.63091 14.9892 3.63091 12.5C3.63091 10.0108 3.63091 9.75707 3.63091 8.80249C3.64373 8.05553 3.78263 7.3161 4.04175 6.61541C4.26442 6.0162 4.61966 5.47507 5.08091 5.03249C5.51632 4.59703 6.03944 4.25927 6.6155 4.04166C7.31692 3.78356 8.0555 3.64074 8.80258 3.61874C9.75716 3.61874 10.0109 3.61874 12.5001 3.61874C14.9892 3.61874 15.243 3.61874 16.1976 3.61874C16.9447 3.64074 17.6832 3.78356 18.3847 4.04166C18.9839 4.26433 19.525 4.61957 19.9676 5.08082C20.4054 5.51431 20.7435 6.03798 20.9584 6.61541C21.2165 7.31683 21.3593 8.05541 21.3813 8.80249C21.3813 9.75707 21.3813 10.0108 21.3813 12.5C21.3813 14.9892 21.4659 15.2429 21.4297 16.1975V16.2096ZM19.4963 7.21957C19.3525 6.82926 19.1256 6.47481 18.8315 6.18066C18.5373 5.88652 18.1829 5.65969 17.7926 5.51582C17.2567 5.33005 16.6922 5.24007 16.1251 5.24999C15.1826 5.24999 14.9167 5.24999 12.5001 5.24999C10.0834 5.24999 9.81758 5.24999 8.87508 5.24999C8.30507 5.25556 7.74054 5.36192 7.20758 5.56416C6.82325 5.70149 6.47254 5.91906 6.17879 6.2024C5.88503 6.48574 5.65495 6.82836 5.50383 7.20749C5.32835 7.74564 5.24262 8.309 5.25008 8.87499C5.25008 9.81749 5.25008 10.0833 5.25008 12.5C5.25008 14.9167 5.25008 15.1825 5.25008 16.125C5.26206 16.6944 5.36822 17.2578 5.56425 17.7925C5.70812 18.1828 5.93495 18.5373 6.22909 18.8314C6.52323 19.1255 6.87769 19.3524 7.268 19.4962C7.78355 19.6858 8.32608 19.7919 8.87508 19.8104C9.81758 19.8104 10.0834 19.8104 12.5001 19.8104C14.9167 19.8104 15.1826 19.8104 16.1251 19.8104C16.6951 19.8048 17.2596 19.6985 17.7926 19.4962C18.1829 19.3524 18.5373 19.1255 18.8315 18.8314C19.1256 18.5373 19.3525 18.1828 19.4963 17.7925C19.6986 17.2595 19.8049 16.695 19.8105 16.125C19.8105 15.1825 19.8105 14.9167 19.8105 12.5C19.8105 10.0833 19.8105 9.81749 19.8105 8.87499C19.8108 8.30441 19.7043 7.73882 19.4963 7.20749V7.21957ZM12.5001 17.1158C11.8945 17.1158 11.2948 16.9963 10.7355 16.7642C10.1762 16.5321 9.66811 16.1919 9.24046 15.7631C8.8128 15.3344 8.47395 14.8254 8.2433 14.2655C8.01265 13.7055 7.89474 13.1056 7.89633 12.5C7.89633 11.5865 8.16736 10.6936 8.67509 9.93432C9.18282 9.17499 9.90443 8.58337 10.7486 8.23437C11.5927 7.88537 12.5214 7.79467 13.4171 7.97375C14.3128 8.15284 15.1353 8.59365 15.7803 9.2404C16.4254 9.88714 16.864 10.7107 17.0408 11.6069C17.2175 12.5031 17.1244 13.4316 16.7732 14.2748C16.4219 15.118 15.8284 15.8381 15.0678 16.3438C14.3071 16.8495 13.4135 17.1182 12.5001 17.1158ZM17.3334 8.79041C17.0663 8.76213 16.8191 8.63601 16.6394 8.43633C16.4598 8.23665 16.3604 7.97755 16.3604 7.70895C16.3604 7.44034 16.4598 7.18124 16.6394 6.98157C16.8191 6.78189 17.0663 6.65576 17.3334 6.62749C17.6005 6.65576 17.8477 6.78189 18.0274 6.98157C18.207 7.18124 18.3064 7.44034 18.3064 7.70895C18.3064 7.97755 18.207 8.23665 18.0274 8.43633C17.8477 8.63601 17.6005 8.76213 17.3334 8.79041Z" fill="#FF6B00"/>
</svg>
