<svg width="35" height="23" viewBox="0 0 35 23" fill="none" xmlns="http://www.w3.org/2000/svg">
<path d="M0 1.5C0 0.671573 0.671573 0 1.5 0H33.5C34.3284 0 35 0.671573 35 1.5C35 2.32843 34.3284 3 33.5 3H1.5C0.671574 3 0 2.32843 0 1.5Z" fill="white"/>
<path d="M0 11.5C0 10.6716 0.671573 10 1.5 10H23.5C24.3284 10 25 10.6716 25 11.5C25 12.3284 24.3284 13 23.5 13H1.5C0.671573 13 0 12.3284 0 11.5Z" fill="white"/>
<path d="M0 21.5C0 20.6716 0.671573 20 1.5 20H30.5C31.3284 20 32 20.6716 32 21.5C32 22.3284 31.3284 23 30.5 23H1.5C0.671573 23 0 22.3284 0 21.5Z" fill="white"/>
</svg>
