<svg width="25" height="25" viewBox="0 0 25 25" fill="none" xmlns="http://www.w3.org/2000/svg">
<path d="M21.4538 13.5481C21.1879 13.5481 20.91 13.4635 20.6442 13.4031C20.1063 13.2828 19.5774 13.1253 19.0613 12.9318C18.5007 12.7279 17.8845 12.7385 17.3313 12.9616C16.7781 13.1846 16.3269 13.6044 16.0646 14.1402L15.7988 14.696C14.6253 14.0304 13.5412 13.2184 12.5725 12.2793C11.6335 11.3107 10.8214 10.2266 10.1559 9.05308L10.7117 8.79932C11.2474 8.53702 11.6672 8.08584 11.8903 7.53262C12.1134 6.9794 12.124 6.36322 11.92 5.80266C11.7281 5.2819 11.5707 4.74909 11.4488 4.20766C11.3884 3.94183 11.34 3.66391 11.3038 3.39808C11.157 2.54695 10.7112 1.77618 10.0467 1.22457C9.38206 0.672965 8.54237 0.376769 7.67878 0.389325H4.04169C3.53086 0.388656 3.02566 0.495958 2.55921 0.704197C2.09275 0.912437 1.67558 1.21691 1.33502 1.59766C0.987411 1.98874 0.72858 2.45044 0.576316 2.95104C0.424052 3.45163 0.381963 3.97926 0.452941 4.49766C1.10978 9.52691 3.40757 14.1989 6.99003 17.7893C10.5804 21.3718 15.2524 23.6696 20.2817 24.3264C20.4385 24.3384 20.5961 24.3384 20.7529 24.3264C21.644 24.3277 22.5043 24.0008 23.1696 23.4081C23.5504 23.0675 23.8548 22.6503 24.0631 22.1839C24.2713 21.7174 24.3786 21.2122 24.3779 20.7014V17.0764C24.3714 16.2415 24.0769 15.4344 23.5441 14.7916C23.0113 14.1487 22.273 13.7095 21.4538 13.5481ZM22.0459 20.7981C22.0455 20.9667 22.0098 21.1334 21.9411 21.2874C21.8724 21.4414 21.7723 21.5793 21.6471 21.6922C21.5147 21.8129 21.3571 21.9026 21.1857 21.9548C21.0143 22.0071 20.8335 22.0206 20.6563 21.9943C16.1471 21.4054 11.9566 19.3505 8.73003 16.146C5.50072 12.9167 3.42789 8.71156 2.83336 4.18349C2.80711 4.00627 2.82059 3.82543 2.87284 3.65406C2.92509 3.4827 3.01478 3.32509 3.13544 3.19266C3.24977 3.06597 3.38965 2.96493 3.54585 2.8962C3.70205 2.82747 3.87104 2.79261 4.04169 2.79391H7.66669C7.94601 2.78708 8.21907 2.87727 8.43938 3.04911C8.65969 3.22095 8.81364 3.46383 8.87502 3.73641C8.87502 4.06266 8.98378 4.40099 9.05627 4.72724C9.19593 5.36024 9.3817 5.98218 9.61211 6.58808L7.92044 7.38558C7.62967 7.51905 7.40371 7.7624 7.29211 8.06224C7.17125 8.35643 7.17125 8.68639 7.29211 8.98058C9.03114 12.7056 12.0254 15.6999 15.7504 17.4389C16.0446 17.5598 16.3746 17.5598 16.6688 17.4389C16.9686 17.3273 17.212 17.1013 17.3454 16.8106L18.1067 15.1189C18.7301 15.3462 19.3679 15.5319 20.0159 15.6747C20.33 15.7472 20.6684 15.8077 20.9946 15.856C21.2672 15.9174 21.5101 16.0713 21.6819 16.2916C21.8538 16.5119 21.9439 16.785 21.9371 17.0643L22.0459 20.7981ZM14.9167 0.256409C14.6388 0.256409 14.3488 0.256409 14.0709 0.256409C13.7504 0.283649 13.4539 0.437079 13.2465 0.682947C13.0392 0.928815 12.938 1.24698 12.9652 1.56745C12.9925 1.88792 13.1459 2.18444 13.3918 2.39179C13.6376 2.59913 13.9558 2.70032 14.2763 2.67308H14.9167C16.8395 2.67308 18.6836 3.43691 20.0432 4.79655C21.4029 6.15619 22.1667 8.00026 22.1667 9.92308C22.1667 10.1406 22.1667 10.346 22.1667 10.5635C22.1399 10.8823 22.2406 11.1986 22.4467 11.4433C22.6529 11.6879 22.9476 11.8408 23.2663 11.8685H23.3629C23.6654 11.8697 23.9574 11.7574 24.1811 11.5539C24.4048 11.3503 24.5441 11.0702 24.5713 10.7689C24.5713 10.491 24.5713 10.201 24.5713 9.92308C24.5713 7.36141 23.5545 4.90448 21.7442 3.09198C19.934 1.27947 17.4784 0.259611 14.9167 0.256409ZM17.3334 9.92308C17.3334 10.2435 17.4607 10.5509 17.6873 10.7775C17.9139 11.0041 18.2212 11.1314 18.5417 11.1314C18.8622 11.1314 19.1695 11.0041 19.3961 10.7775C19.6227 10.5509 19.75 10.2435 19.75 9.92308C19.75 8.6412 19.2408 7.41182 18.3344 6.50539C17.4279 5.59897 16.1986 5.08974 14.9167 5.08974C14.5962 5.08974 14.2889 5.21705 14.0623 5.44366C13.8357 5.67026 13.7084 5.97761 13.7084 6.29808C13.7084 6.61855 13.8357 6.92589 14.0623 7.1525C14.2889 7.3791 14.5962 7.50641 14.9167 7.50641C15.5576 7.50641 16.1723 7.76102 16.6255 8.21423C17.0787 8.66745 17.3334 9.28214 17.3334 9.92308Z" fill="#FF6B00"/>
</svg>
